<svg width="425" height="355" viewBox="0 0 425 355" fill="none" xmlns="http://www.w3.org/2000/svg">
<g opacity="0.41">
<g opacity="0.41">
<path opacity="0.41" d="M424.338 226.427C424.741 219.494 424.561 212.529 423.778 205.631C420.107 173.225 403.481 142.666 379.011 121.105C370.281 113.412 360.347 106.521 354.666 96.3668C345.099 79.2672 345.823 59.6143 333.948 42.7307C322.06 25.8272 304.736 12.6448 285.197 5.87567C226.944 -14.3105 145.388 18.5554 152.73 88.7416C152.757 88.9936 152.785 89.3603 152.815 89.8229C153.791 104.403 142.349 116.66 127.787 117.006C74.04 118.281 27.7745 159.72 17.8761 212.211C11.5096 245.967 21.9333 282.967 46.6273 306.848C65.0602 324.676 89.7903 334.467 114.535 341.197C164.146 354.688 216.352 357.516 267.504 352.358C315.387 347.528 365.895 333.763 396.864 296.924C413.382 277.273 422.847 252.071 424.337 226.427" fill="#C5D9FF"/>
</g>
</g>
<g opacity="0.88">
<g opacity="0.88">
<path opacity="0.88" d="M380.139 229.734C380.455 224.304 380.314 218.846 379.702 213.442C376.826 188.055 363.801 164.116 344.632 147.225C337.792 141.199 330.011 135.8 325.559 127.847C318.065 114.452 318.632 99.0547 309.33 85.8283C300.017 72.5873 286.445 62.2609 271.139 56.957C225.504 41.1441 161.614 66.8901 167.367 121.874C167.387 122.07 167.41 122.357 167.434 122.721C168.199 134.142 159.234 143.744 147.826 144.014C105.722 145.014 69.4787 177.477 61.7242 218.596C56.7364 245.04 64.9028 274.028 84.2477 292.734C98.6873 306.699 118.062 314.371 137.445 319.642C176.309 330.212 217.207 332.426 257.281 328.385C294.79 324.602 334.359 313.819 358.617 284.959C371.558 269.565 378.972 249.823 380.139 229.734" fill="#C5D9FF"/>
</g>
</g>
<g opacity="0.31">
<g opacity="0.31">
<path opacity="0.31" d="M412.805 52.3652C412.805 59.625 406.92 65.5102 399.66 65.5102C392.4 65.5102 386.515 59.625 386.515 52.3652C386.515 45.1054 392.4 39.2202 399.66 39.2202C406.92 39.2202 412.805 45.1054 412.805 52.3652Z" fill="#C5D9FF"/>
</g>
</g>
<g opacity="0.31">
<g opacity="0.31">
<path opacity="0.31" d="M126.199 37.1256C126.199 45.544 119.375 52.3679 110.956 52.3679C102.538 52.3679 95.7141 45.544 95.7141 37.1256C95.7141 28.7085 102.538 21.8833 110.956 21.8833C119.375 21.8833 126.199 28.7085 126.199 37.1256Z" fill="#C5D9FF"/>
</g>
</g>
<g opacity="0.31">
<g opacity="0.31">
<path opacity="0.31" d="M39.3609 329.905C39.3609 340.777 30.5478 349.591 19.6747 349.591C8.80297 349.591 -0.0114746 340.777 -0.0114746 329.905C-0.0114746 319.033 8.80297 310.219 19.6747 310.219C30.5478 310.219 39.3609 319.033 39.3609 329.905Z" fill="#C5D9FF"/>
</g>
</g>
<path d="M244.782 104.804C244.782 143.338 213.545 174.576 175.011 174.576C136.477 174.576 105.239 143.338 105.239 104.804C105.239 66.2702 136.477 35.0323 175.011 35.0323C213.545 35.0323 244.782 66.2702 244.782 104.804Z" fill="#F16541"/>
<path d="M223.45 155.056C223.279 155.056 223.108 154.991 222.978 154.861C222.718 154.6 222.718 154.179 222.978 153.917C236.031 140.866 243.22 123.511 243.22 105.053C243.22 86.595 236.031 69.2407 222.978 56.189C209.926 43.136 192.572 35.9482 174.113 35.9482C155.655 35.9482 138.301 43.136 125.249 56.189C124.988 56.449 124.567 56.449 124.307 56.189C124.045 55.9277 124.045 55.5064 124.307 55.2464C137.61 41.9414 155.299 34.6149 174.113 34.6149C192.928 34.6149 210.617 41.9414 223.922 55.2464C237.225 68.5501 244.553 86.239 244.553 105.053C244.553 123.867 237.225 141.556 223.922 154.861C223.791 154.991 223.62 155.056 223.45 155.056" fill="#243762"/>
<path d="M228.103 104.804C228.103 134.127 204.331 157.899 175.008 157.899C145.686 157.899 121.915 134.127 121.915 104.804C121.915 75.4806 145.686 51.7092 175.008 51.7092C204.331 51.7092 228.103 75.4806 228.103 104.804Z" fill="white"/>
<path d="M175.011 158.562C145.368 158.562 121.251 134.446 121.251 104.801C121.251 75.1579 145.368 51.0399 175.011 51.0399C175.379 51.0399 175.677 51.3385 175.677 51.7065C175.677 52.0758 175.379 52.3732 175.011 52.3732C146.102 52.3732 122.584 75.8926 122.584 104.801C122.584 133.71 146.102 157.229 175.011 157.229C175.379 157.229 175.677 157.528 175.677 157.896C175.677 158.264 175.379 158.562 175.011 158.562Z" fill="#243762"/>
<path d="M188.757 114.95H174.314C171.351 114.95 168.94 112.54 168.94 109.577V89.5522C168.94 86.975 171.03 84.8857 173.607 84.8857C176.184 84.8857 178.273 86.975 178.273 89.5522V105.617H188.757C191.334 105.617 193.424 107.706 193.424 110.284C193.424 112.861 191.334 114.95 188.757 114.95" fill="#243762"/>
<path d="M66.6802 129.043L141.841 204.204C156.543 218.906 180.38 218.906 195.082 204.204L204.067 195.218C207.461 191.824 207.461 186.323 204.067 182.931L173.399 152.261C170.006 148.868 164.504 148.868 161.111 152.261L145.777 167.596C144.577 168.796 142.632 168.796 141.432 167.596L104.239 130.403C103.055 129.219 103.055 127.299 104.239 126.115L119.362 110.993C122.755 107.6 122.755 102.1 119.362 98.7067L87.861 67.2061C84.5104 63.8556 79.0919 63.8076 75.6826 67.1008L67.1495 75.3419C52.0072 89.9629 51.7966 114.16 66.6802 129.043" fill="#243762"/>
<path d="M69.0401 76.8579L111.272 119.09L112.72 117.642L119.368 110.996C122.761 107.602 122.761 102.103 119.368 98.7093L87.8677 67.2088C84.5157 63.8582 79.0972 63.8102 75.6893 67.1021L67.1548 75.3432L69.0401 76.8579Z" fill="#ECF1F7"/>
<path d="M68.1601 75.298L69.5094 76.3873L111.27 118.149L118.894 110.525C120.409 109.01 121.243 106.995 121.243 104.853C121.243 102.711 120.409 100.696 118.894 99.1814L87.3943 67.6808C84.3197 64.6049 79.2758 64.5622 76.1493 67.5822L68.1601 75.298ZM111.27 120.034L68.5921 77.3552L66.1455 75.39L75.2239 66.6235C78.8705 63.1036 84.753 63.1529 88.337 66.7382L119.836 98.2387C123.484 101.885 123.484 107.821 119.836 111.468L111.27 120.034Z" fill="#243762"/>
<path d="M154.945 161.322L197.177 203.555L198.625 202.107L205.273 195.46C208.666 192.067 208.666 186.566 205.273 183.174L173.772 151.673C170.422 148.323 165.003 148.275 161.594 151.567L153.059 159.808L154.945 161.322Z" fill="#ECF1F7"/>
<path d="M154.078 159.763L155.427 160.852L197.188 202.613L204.813 194.99C206.327 193.474 207.161 191.459 207.161 189.318C207.161 187.175 206.327 185.161 204.813 183.646L173.312 152.145C170.238 149.072 165.194 149.027 162.067 152.047L154.078 159.763ZM197.188 204.499L154.51 161.82L152.063 159.854L161.142 151.088C164.788 147.568 170.671 147.619 174.255 151.203L205.755 182.703C207.522 184.47 208.494 186.819 208.494 189.318C208.494 191.816 207.522 194.166 205.755 195.932L197.188 204.499Z" fill="#243762"/>
<path d="M72.2667 71.8713L97.9994 97.604Z" fill="#ECF1F7"/>
<path d="M97.9993 98.2707C97.8287 98.2707 97.658 98.2054 97.5274 98.076L71.7947 72.342C71.5347 72.082 71.5347 71.6607 71.7947 71.3994C72.056 71.1394 72.4773 71.1394 72.7373 71.3994L98.4713 97.1321C98.7313 97.3934 98.7313 97.8147 98.4713 98.076C98.3407 98.2054 98.17 98.2707 97.9993 98.2707" fill="#243762"/>
<path d="M174.637 174.242L200.371 199.975Z" fill="#ECF1F7"/>
<path d="M200.37 200.641C200.199 200.641 200.029 200.576 199.898 200.447L174.165 174.713C173.904 174.453 173.904 174.031 174.165 173.77C174.425 173.51 174.847 173.51 175.108 173.77L200.842 199.503C201.102 199.764 201.102 200.185 200.842 200.447C200.711 200.576 200.541 200.641 200.37 200.641" fill="#243762"/>
<path d="M313.287 332.185L214.759 317.612C203.619 315.964 195.924 305.598 197.57 294.456L232.908 55.5558C234.556 44.4147 244.922 36.7202 256.063 38.3669L354.592 52.9412C365.731 54.5878 373.427 64.9555 371.781 76.0966L336.443 314.997C334.795 326.14 324.428 333.834 313.287 332.186" fill="#243762"/>
<path d="M329.567 304.359L207.239 286.265L240.609 60.657L362.937 78.7512L329.567 304.359Z" fill="#ECF1F7"/>
<path d="M360.433 95.6841L238.104 77.5912L240.609 60.661L362.937 78.7552L360.433 95.6841Z" fill="#F16541"/>
<path d="M266.315 302.666C264.899 302.666 263.526 303.118 262.367 303.976C260.941 305.035 260.013 306.585 259.753 308.344C259.493 310.101 259.933 311.856 260.991 313.281C262.05 314.708 263.601 315.637 265.358 315.897C268.991 316.436 272.375 313.917 272.91 310.291C273.17 308.533 272.73 306.78 271.671 305.355C270.612 303.927 269.062 302.999 267.305 302.739C266.974 302.691 266.643 302.666 266.315 302.666V302.666ZM266.337 317.303C265.949 317.303 265.558 317.273 265.163 317.215C263.054 316.904 261.191 315.789 259.921 314.077C258.649 312.363 258.121 310.259 258.434 308.148C258.746 306.039 259.861 304.178 261.573 302.907C263.286 301.636 265.394 301.103 267.499 301.42C269.608 301.732 271.471 302.847 272.742 304.559C274.012 306.271 274.54 308.376 274.23 310.485C273.643 314.447 270.226 317.303 266.337 317.303" fill="#ECF1F7"/>
<path d="M284.008 54.6985C283.745 54.6985 283.489 54.7825 283.275 54.9425C283.011 55.1384 282.839 55.4251 282.789 55.7518C282.741 56.0784 282.823 56.4024 283.02 56.6677C283.216 56.9317 283.504 57.1051 283.831 57.1531C284.16 57.2024 284.481 57.1184 284.747 56.9224C285.011 56.7264 285.183 56.4397 285.231 56.1144C285.28 55.7864 285.197 55.4611 285.001 55.1971C284.805 54.9318 284.517 54.7598 284.192 54.7118C284.129 54.7025 284.068 54.6985 284.008 54.6985V54.6985ZM284.012 58.4997C283.888 58.4997 283.761 58.4904 283.635 58.4717C282.956 58.3717 282.359 58.013 281.949 57.4624C281.54 56.9117 281.371 56.2344 281.471 55.5571C281.571 54.8785 281.929 54.2798 282.48 53.8705C283.031 53.4612 283.704 53.2892 284.387 53.3932C285.064 53.4932 285.663 53.8518 286.072 54.4025C286.48 54.9531 286.651 55.6291 286.551 56.3077V56.3091C286.361 57.5824 285.263 58.4997 284.012 58.4997" fill="#ECF1F7"/>
<path d="M292.528 55.9651C291.927 55.9651 291.399 56.4064 291.308 57.0197C291.26 57.345 291.341 57.6704 291.537 57.9357C291.735 58.1997 292.023 58.3717 292.348 58.4197L323.556 63.0356C324.23 63.1382 324.859 62.6689 324.958 61.9956C325.006 61.6703 324.924 61.3449 324.728 61.0796C324.531 60.8156 324.244 60.6423 323.918 60.5943L292.709 55.9784C292.648 55.9691 292.588 55.9651 292.528 55.9651V55.9651ZM323.743 64.3822C323.616 64.3822 323.49 64.3742 323.362 64.3542L292.153 59.7397C291.475 59.6383 290.876 59.2797 290.468 58.7303C290.059 58.1797 289.889 57.5024 289.989 56.8237C290.089 56.1451 290.448 55.5478 290.999 55.1384C291.549 54.7291 292.229 54.5611 292.904 54.6598L324.112 59.2757C324.791 59.3757 325.39 59.7343 325.799 60.285C326.207 60.8356 326.378 61.5129 326.276 62.1903C326.176 62.8689 325.818 63.4676 325.268 63.8769C324.82 64.2089 324.29 64.3822 323.743 64.3822" fill="#ECF1F7"/>
<path d="M330.074 235.334L244.74 222.712C243.35 222.506 242.057 223.468 241.852 224.857L238.577 246.994C238.372 248.384 239.332 249.678 240.721 249.882L313.678 260.673L321.194 271.04L322.532 261.983L326.055 262.504C327.444 262.709 328.738 261.749 328.943 260.361L332.218 238.222C332.423 236.833 331.463 235.539 330.074 235.334" fill="#C5D9FF"/>
<path d="M313.674 261.333C313.642 261.333 313.609 261.331 313.575 261.325L240.62 250.534C239.772 250.411 239.023 249.963 238.512 249.274C238.001 248.584 237.788 247.739 237.913 246.89L241.188 224.752C241.448 223.001 243.078 221.77 244.833 222.046L264.554 224.965C264.918 225.018 265.17 225.357 265.115 225.721C265.062 226.085 264.719 226.337 264.358 226.282L244.638 223.364C243.613 223.221 242.658 223.924 242.508 224.948L239.232 247.084C239.16 247.582 239.284 248.076 239.583 248.478C239.881 248.88 240.318 249.142 240.814 249.215L313.771 260.008C314.135 260.061 314.387 260.4 314.333 260.764C314.285 261.095 313.999 261.333 313.674 261.333" fill="#243762"/>
<path d="M343.633 143.603L258.299 130.982C256.91 130.775 255.617 131.735 255.411 133.124L252.137 155.264C251.932 156.653 252.892 157.945 254.281 158.152L327.238 168.942L334.754 179.309L336.093 170.252L339.615 170.773C341.004 170.978 342.297 170.018 342.503 168.63L345.777 146.491C345.983 145.102 345.023 143.808 343.633 143.603" fill="#C5D9FF"/>
<path d="M335.18 181.015L326.87 169.552L254.19 158.803C252.44 158.544 251.226 156.908 251.485 155.157C251.54 154.793 251.877 154.551 252.242 154.596C252.606 154.649 252.858 154.988 252.804 155.352C252.73 155.848 252.854 156.343 253.154 156.745C253.452 157.148 253.889 157.409 254.385 157.484L327.619 168.316L334.34 177.586L335.539 169.486L339.72 170.105C340.213 170.177 340.709 170.054 341.112 169.756C341.515 169.457 341.777 169.02 341.849 168.524L344.028 153.796C344.081 153.432 344.42 153.184 344.785 153.235C345.149 153.288 345.401 153.627 345.347 153.991L343.169 168.718C343.044 169.566 342.596 170.316 341.907 170.826C341.219 171.337 340.371 171.549 339.524 171.424L336.661 171.001L335.18 181.015Z" fill="#243762"/>
<path d="M235.623 172.122L320.957 184.743C322.346 184.95 323.306 186.242 323.1 187.631L319.826 209.771C319.621 211.16 318.327 212.12 316.938 211.913L243.981 201.123L233.787 208.869L235.125 199.813L231.604 199.292C230.215 199.087 229.255 197.794 229.46 196.404L232.735 174.266C232.94 172.877 234.233 171.917 235.623 172.122" fill="#F16541"/>
<path d="M317.314 212.615C317.155 212.615 316.997 212.603 316.837 212.579L271.295 205.843C270.931 205.789 270.679 205.451 270.732 205.087C270.787 204.723 271.123 204.468 271.49 204.525L317.033 211.26C317.529 211.331 318.022 211.209 318.425 210.911C318.827 210.612 319.09 210.175 319.163 209.679L322.438 187.539C322.588 186.516 321.879 185.561 320.855 185.409C320.491 185.355 320.239 185.017 320.294 184.651C320.347 184.289 320.686 184.039 321.051 184.09C322.802 184.35 324.015 185.983 323.756 187.735L320.482 209.873C320.356 210.721 319.907 211.471 319.219 211.981C318.661 212.396 317.998 212.615 317.314 212.615" fill="#243762"/>
<path d="M329.567 304.359L207.239 286.265L210.31 265.507L332.638 283.602L329.567 304.359Z" fill="white"/>
<path d="M228.356 278.6C227.755 282.665 223.972 285.473 219.907 284.871C215.842 284.27 213.034 280.487 213.635 276.422C214.238 272.357 218.02 269.549 222.084 270.15C226.15 270.752 228.957 274.534 228.356 278.6" fill="#C5D9FF"/>
<g opacity="0.33">
<g opacity="0.33">
<path opacity="0.33" d="M317.794 297.372C320.686 297.792 323.386 295.792 323.814 292.902C324.02 291.502 323.67 290.105 322.826 288.967C321.982 287.831 320.746 287.09 319.346 286.885L240.068 275.157C237.175 274.734 234.477 276.734 234.048 279.625C233.841 281.026 234.192 282.423 235.036 283.562C235.88 284.698 237.116 285.439 238.517 285.645L317.794 297.372ZM318.573 298.763C318.251 298.763 317.926 298.739 317.599 298.69L238.323 286.963C236.569 286.706 235.021 285.779 233.965 284.355C232.909 282.933 232.471 281.182 232.729 279.43C233.265 275.813 236.649 273.293 240.264 273.84L319.541 285.566C323.159 286.099 325.667 289.478 325.132 293.098C324.646 296.39 321.806 298.763 318.573 298.763" fill="#F16541"/>
</g>
</g>
<path d="M248.209 68.9381C247.937 68.9381 247.673 69.0248 247.452 69.1901C247.177 69.3927 246.998 69.6914 246.949 70.0287C246.898 70.3661 246.984 70.7034 247.186 70.9767C247.39 71.2514 247.688 71.4287 248.025 71.4794C248.716 71.5834 249.373 71.0994 249.476 70.402C249.526 70.0647 249.441 69.7287 249.237 69.4541C249.034 69.1807 248.737 69.0021 248.4 68.9528C248.336 68.9434 248.272 68.9381 248.209 68.9381V68.9381ZM248.213 72.826C248.088 72.826 247.96 72.8167 247.83 72.798C246.406 72.5873 245.42 71.258 245.629 69.8341C245.732 69.1434 246.097 68.5354 246.656 68.1194C247.217 67.7035 247.905 67.5288 248.594 67.6328C250.018 67.8434 251.005 69.1727 250.794 70.598C250.602 71.8927 249.485 72.826 248.213 72.826" fill="white"/>
<path d="M255.422 70.0047C254.799 70.0047 254.253 70.4607 254.16 71.0954C254.109 71.4327 254.194 71.7687 254.397 72.0434C254.601 72.3167 254.898 72.4953 255.235 72.5447C255.573 72.5953 255.91 72.5113 256.183 72.3073C256.458 72.1047 256.635 71.8074 256.686 71.4687C256.735 71.1314 256.651 70.7941 256.449 70.5207C256.245 70.2461 255.947 70.0687 255.61 70.0181C255.547 70.0087 255.483 70.0047 255.422 70.0047V70.0047ZM255.429 73.8926C255.299 73.8926 255.17 73.8833 255.041 73.8646C253.617 73.654 252.63 72.3247 252.84 70.8994C253.052 69.4767 254.382 68.4941 255.805 68.6994C256.494 68.8021 257.103 69.1661 257.519 69.7261C257.934 70.2861 258.107 70.974 258.005 71.6647C257.902 72.354 257.538 72.962 256.978 73.378C256.523 73.7153 255.985 73.8926 255.429 73.8926" fill="white"/>
<path d="M262.502 71.058C262.23 71.058 261.966 71.1447 261.743 71.31C261.47 71.514 261.291 71.8113 261.242 72.1487C261.191 72.486 261.277 72.8233 261.479 73.0966C261.682 73.3713 261.981 73.55 262.318 73.5993C263.011 73.6966 263.665 73.2193 263.769 72.5233C263.871 71.826 263.389 71.1754 262.691 71.0727C262.629 71.0634 262.565 71.058 262.502 71.058V71.058ZM262.506 74.9473C262.379 74.9473 262.251 74.9379 262.122 74.9193C260.698 74.7073 259.711 73.3766 259.922 71.954C260.134 70.53 261.463 69.5474 262.887 69.7527C264.31 69.9647 265.298 71.294 265.087 72.718C264.895 74.0126 263.778 74.9473 262.506 74.9473" fill="white"/>
<path d="M362.086 96.5908C362.054 96.5908 362.021 96.5881 361.987 96.5841L248.754 79.8352C248.39 79.7818 248.138 79.4432 248.192 79.0779C248.245 78.7139 248.582 78.4632 248.949 78.5165L362.183 95.2641C362.547 95.3188 362.799 95.6574 362.745 96.0214C362.697 96.3521 362.411 96.5908 362.086 96.5908" fill="#243762"/>
<path d="M314.887 240.427C314.855 240.427 314.822 240.424 314.789 240.419L254.372 231.483C254.008 231.43 253.756 231.091 253.81 230.727C253.864 230.362 254.197 230.103 254.567 230.166L314.985 239.102C315.349 239.155 315.601 239.494 315.546 239.858C315.498 240.188 315.213 240.427 314.887 240.427" fill="white"/>
<path d="M279.115 242.507C279.083 242.507 279.05 242.504 279.016 242.499L253.302 238.697C252.938 238.643 252.686 238.305 252.74 237.939C252.793 237.577 253.126 237.321 253.497 237.378L279.212 241.182C279.576 241.235 279.828 241.574 279.774 241.938C279.726 242.268 279.44 242.507 279.115 242.507" fill="white"/>
<path d="M270.448 248.12C270.416 248.12 270.383 248.118 270.35 248.112L252.302 245.443C251.938 245.39 251.686 245.051 251.741 244.687C251.794 244.323 252.138 244.068 252.498 244.126L270.546 246.795C270.91 246.848 271.162 247.187 271.107 247.551C271.059 247.882 270.774 248.12 270.448 248.12" fill="white"/>
<path d="M313.821 247.64C313.789 247.64 313.755 247.638 313.722 247.632L287.147 243.703C286.783 243.65 286.531 243.311 286.585 242.946C286.639 242.583 286.973 242.327 287.343 242.386L313.918 246.315C314.282 246.368 314.534 246.707 314.479 247.071C314.431 247.402 314.146 247.64 313.821 247.64" fill="white"/>
<path d="M307.501 190.295C307.469 190.295 307.435 190.292 307.402 190.287L246.985 181.351C246.621 181.298 246.369 180.959 246.422 180.595C246.476 180.23 246.81 179.973 247.18 180.034L307.598 188.97C307.962 189.023 308.214 189.362 308.159 189.726C308.111 190.056 307.826 190.295 307.501 190.295" fill="white"/>
<path d="M271.742 192.375C271.71 192.375 271.676 192.372 271.643 192.367L245.929 188.564C245.565 188.511 245.313 188.172 245.366 187.807C245.421 187.444 245.76 187.194 246.124 187.246L271.839 191.05C272.203 191.103 272.455 191.442 272.4 191.806C272.352 192.136 272.067 192.375 271.742 192.375" fill="white"/>
<path d="M298.461 203.215C298.428 203.215 298.393 203.212 298.358 203.207L246.216 195.118C245.852 195.062 245.602 194.72 245.658 194.356C245.716 193.994 246.058 193.744 246.42 193.799L298.562 201.889C298.926 201.945 299.176 202.287 299.12 202.649C299.068 202.979 298.784 203.215 298.461 203.215" fill="white"/>
<path d="M306.434 197.508C306.402 197.508 306.369 197.506 306.336 197.5L279.76 193.57C279.396 193.516 279.144 193.178 279.199 192.814C279.252 192.45 279.588 192.195 279.956 192.252L306.532 196.183C306.896 196.236 307.147 196.575 307.093 196.939C307.045 197.27 306.76 197.508 306.434 197.508" fill="white"/>
<path d="M246.582 88.8976L331.916 101.52C333.306 101.725 334.266 103.019 334.06 104.408L330.786 126.546C330.58 127.935 329.287 128.895 327.898 128.69L254.941 117.898L244.746 125.646L246.085 116.589L242.564 116.068C241.175 115.862 240.215 114.569 240.42 113.18L243.694 91.0415C243.9 89.6522 245.193 88.6923 246.582 88.8976" fill="#F16541"/>
<path d="M330.78 127.217C330.748 127.217 330.715 127.214 330.682 127.21C330.318 127.155 330.066 126.817 330.12 126.453L333.395 104.315C333.468 103.819 333.344 103.324 333.046 102.921C332.747 102.519 332.308 102.257 331.812 102.184L278.831 94.3468C278.467 94.2935 278.215 93.9548 278.27 93.5895C278.323 93.2255 278.667 92.9829 279.027 93.0282L332.008 100.864C332.856 100.991 333.604 101.439 334.115 102.127C334.627 102.815 334.839 103.661 334.713 104.509L331.439 126.647C331.391 126.978 331.106 127.217 330.78 127.217" fill="#243762"/>
<path d="M318.461 107.07C318.429 107.07 318.395 107.068 318.362 107.064L257.945 98.1267C257.581 98.0721 257.329 97.7347 257.382 97.3694C257.435 97.0054 257.769 96.7574 258.139 96.8081L318.558 105.744C318.922 105.799 319.174 106.137 319.119 106.501C319.071 106.832 318.786 107.07 318.461 107.07" fill="white"/>
<path d="M282.701 109.15C282.669 109.15 282.636 109.148 282.603 109.144L256.889 105.34C256.525 105.286 256.273 104.948 256.326 104.583C256.379 104.219 256.718 103.968 257.083 104.021L282.799 107.824C283.163 107.878 283.415 108.217 283.36 108.581C283.312 108.912 283.027 109.15 282.701 109.15" fill="white"/>
<path d="M309.421 119.99C309.387 119.99 309.353 119.988 309.318 119.982L257.175 111.893C256.811 111.836 256.562 111.496 256.618 111.132C256.675 110.768 257.021 110.524 257.379 110.574L309.522 118.665C309.886 118.721 310.135 119.062 310.079 119.426C310.027 119.756 309.745 119.99 309.421 119.99" fill="white"/>
<path d="M317.394 114.284C317.362 114.284 317.329 114.281 317.295 114.277L290.72 110.345C290.356 110.292 290.104 109.953 290.159 109.589C290.212 109.225 290.545 108.974 290.916 109.026L317.491 112.957C317.855 113.012 318.107 113.35 318.053 113.714C318.005 114.045 317.719 114.284 317.394 114.284" fill="white"/>
<path d="M328.5 149.549C328.468 149.549 328.435 149.547 328.402 149.543L267.984 140.606C267.62 140.551 267.368 140.214 267.422 139.848C267.475 139.484 267.808 139.234 268.179 139.287L328.598 148.223C328.962 148.277 329.214 148.616 329.159 148.98C329.111 149.311 328.826 149.549 328.5 149.549" fill="white"/>
<path d="M292.741 151.629C292.709 151.629 292.676 151.627 292.643 151.623L266.929 147.819C266.565 147.764 266.313 147.425 266.366 147.062C266.419 146.698 266.762 146.443 267.123 146.499L292.839 150.303C293.203 150.357 293.455 150.696 293.4 151.06C293.352 151.391 293.067 151.629 292.741 151.629" fill="white"/>
<path d="M284.075 157.229C284.043 157.229 284.009 157.228 283.976 157.223L265.929 154.553C265.565 154.499 265.313 154.16 265.367 153.796C265.421 153.432 265.761 153.179 266.125 153.233L284.172 155.903C284.536 155.957 284.788 156.296 284.733 156.66C284.685 156.991 284.4 157.229 284.075 157.229" fill="white"/>
<path d="M327.434 156.763C327.402 156.763 327.368 156.76 327.335 156.756L300.76 152.824C300.396 152.771 300.144 152.432 300.198 152.068C300.252 151.704 300.585 151.449 300.956 151.505L327.531 155.436C327.895 155.491 328.147 155.829 328.092 156.193C328.044 156.524 327.759 156.763 327.434 156.763" fill="white"/>
<path d="M205.65 311.692L68.7735 327.113C66.1442 327.409 63.7736 325.518 63.4776 322.888L53.5979 235.207C53.5819 235.067 53.6819 234.943 53.8205 234.927L199.684 218.494C199.822 218.478 199.948 218.578 199.962 218.717L209.845 306.432C210.139 309.043 208.261 311.397 205.65 311.692" fill="#F7A9B4"/>
<path d="M54.3072 235.547L64.1402 322.818C64.3936 325.077 66.4309 326.718 68.6988 326.456L205.575 311.033L205.65 311.696L205.575 311.033C206.662 310.911 207.635 310.373 208.317 309.519C208.998 308.665 209.306 307.596 209.183 306.511L199.348 219.206L54.3072 235.547ZM68.2348 327.814C65.4962 327.814 63.1283 325.75 62.8149 322.966L52.9352 235.286C52.8792 234.782 53.2432 234.326 53.7458 234.269L199.609 217.836C200.12 217.778 200.569 218.141 200.625 218.645L210.509 306.362C210.671 307.8 210.262 309.217 209.359 310.351C208.455 311.483 207.165 312.196 205.726 312.359L68.8495 327.781C68.6428 327.804 68.4388 327.814 68.2361 327.814" fill="#243762"/>
<g opacity="0.28999">
<g opacity="0.28999">
<path opacity="0.28999" d="M199.237 311.692L75.4746 327.113C72.8453 327.409 113.826 274.844 113.53 272.216L53.6045 235.207C53.5898 235.067 53.6885 234.943 53.8271 234.927L199.69 218.494C199.829 218.478 199.954 218.578 199.97 218.717L150.074 268.098C150.367 270.709 201.854 311.397 199.244 311.692" fill="#243762"/>
</g>
</g>
<path d="M53.8271 234.921L114.143 175.27C117.74 171.704 123.312 171.066 127.62 173.731L199.313 218.257C199.434 218.333 199.391 218.52 199.249 218.537L53.5724 234.949" fill="#F7A9B4"/>
<path d="M121.852 172.762C119.214 172.762 116.602 173.782 114.612 175.754L55.6618 234.054L197.698 218.052L127.265 174.309C125.587 173.269 123.711 172.762 121.85 172.762H121.852ZM53.6486 235.622L53.5379 234.641L53.3552 234.457L53.5006 234.314L53.4992 234.297L53.5192 234.294L113.672 174.806C117.502 171.01 123.38 170.338 127.968 173.176L199.661 217.701C199.957 217.884 200.104 218.234 200.029 218.573C199.953 218.913 199.67 219.169 199.325 219.209L53.6486 235.622Z" fill="#243762"/>
<g opacity="0.28999">
<g opacity="0.28999">
<path opacity="0.28999" d="M53.8271 234.921L114.143 175.27C117.74 171.704 123.312 171.066 127.62 173.731L199.313 218.257C199.434 218.333 199.391 218.52 199.249 218.537L53.5724 234.949" fill="#243762"/>
</g>
</g>
<path d="M120.812 263.013L75.4733 326.096L199.236 312.151L140.996 260.739C134.92 255.375 125.541 256.432 120.812 263.013Z" fill="#F7A9B4"/>
<path d="M131.932 257.987C131.449 257.987 130.964 258.013 130.48 258.068C126.828 258.479 123.504 260.427 121.359 263.411L76.8959 325.273L197.674 311.665L140.56 261.247C138.17 259.137 135.089 257.987 131.932 257.987V257.987ZM74.06 326.934L120.276 262.632L120.817 263.021L120.276 262.632C122.64 259.344 126.305 257.196 130.331 256.743C134.356 256.291 138.405 257.568 141.442 260.247L200.807 312.655L74.06 326.934Z" fill="#243762"/>
<path d="M61.187 191.708L156.518 180.967C162.767 180.263 168.328 184.09 168.939 189.514L175.067 243.896L148.555 268.262L113.524 272.21L78.9226 250.568L72.9867 197.88L61.187 191.708Z" fill="white"/>
<path d="M79.5466 250.174L113.679 271.522L148.264 267.625L174.364 243.635L168.275 189.59C168.002 187.16 166.648 184.995 164.463 183.493C162.25 181.97 159.455 181.311 156.591 181.631L63.4243 192.128L73.6067 197.454L79.5466 250.174ZM113.367 272.9L78.2946 250.963L72.3614 198.308L63.283 190.802L156.441 180.306C159.623 179.949 162.74 180.689 165.219 182.394C167.727 184.119 169.283 186.622 169.6 189.44L175.765 244.158L148.845 268.901L113.367 272.9Z" fill="#243762"/>
<g opacity="0.28999">
<g opacity="0.28999">
<path opacity="0.28999" d="M120.812 257.573L75.4733 326.1L199.236 312.156L140.996 255.3C134.92 249.936 125.541 250.992 120.812 257.573Z" fill="#243762"/>
</g>
</g>
<path d="M120.812 263.013L75.4733 326.096L199.236 312.151L140.996 260.739C134.92 255.375 125.541 256.432 120.812 263.013Z" fill="#F7A9B4"/>
<path d="M131.932 257.987C131.449 257.987 130.964 258.013 130.48 258.068C126.828 258.479 123.504 260.427 121.359 263.411L76.8959 325.273L197.674 311.665L140.56 261.247C138.17 259.137 135.089 257.987 131.932 257.987V257.987ZM74.06 326.934L120.276 262.632L120.817 263.021L120.276 262.632C122.64 259.344 126.305 257.196 130.331 256.743C134.356 256.291 138.405 257.568 141.442 260.247L200.807 312.655L74.06 326.934Z" fill="#243762"/>
<g opacity="0.35001">
<g opacity="0.35001">
<path opacity="0.35001" d="M125.212 276.986L91.9142 323.313L182.805 313.072L140.034 275.316C135.573 271.377 128.685 272.153 125.212 276.986Z" fill="#ECF1F7"/>
</g>
</g>
<path d="M53.8805 235.041L113.528 272.209Z" fill="#F7A9B4"/>
<path d="M113.172 272.786L53.5245 235.618L54.2299 234.485L113.878 271.653L113.172 272.786Z" fill="#243762"/>
<path d="M199.944 218.588L150.061 268.097Z" fill="#F7A9B4"/>
<path d="M150.531 268.573L149.593 267.628L199.474 218.118L200.414 219.064L150.531 268.573Z" fill="#243762"/>
<path d="M75.6266 222.161L58.9884 224.036L56.3151 200.299C55.8218 195.912 58.975 191.958 63.3603 191.464L64.1176 191.379C68.5028 190.884 72.4587 194.039 72.952 198.424L75.6266 222.161Z" fill="#ECF1F7"/>
<path d="M65.0269 192.002C64.7496 192.002 64.4709 192.018 64.1922 192.048L63.4349 192.134C61.491 192.352 59.7483 193.314 58.5284 194.844C57.3097 196.372 56.7578 198.287 56.9777 200.231L59.5764 223.306L74.8893 221.581L72.2894 198.506C72.0707 196.562 71.1081 194.819 69.5774 193.599C68.2681 192.555 66.6775 192.002 65.0269 192.002V192.002ZM58.4004 224.78L55.6524 200.379C55.3938 198.082 56.0444 195.82 57.4871 194.012C58.9284 192.204 60.9883 191.067 63.2856 190.807L64.0429 190.723C66.3428 190.471 68.6015 191.115 70.4094 192.558C72.2174 193.999 73.356 196.059 73.6147 198.358L76.3626 222.754L58.4004 224.78Z" fill="#243762"/>
<path d="M86.933 209.801C86.5983 209.801 86.309 209.551 86.2703 209.209C86.2303 208.843 86.493 208.513 86.8583 208.472L155.931 200.689C156.301 200.645 156.626 200.911 156.669 201.277C156.709 201.644 156.446 201.973 156.081 202.015L87.009 209.797C86.9836 209.8 86.9583 209.801 86.933 209.801" fill="#243762"/>
<path d="M89.5729 233.281C89.2383 233.281 88.9489 233.03 88.9103 232.689C88.8703 232.322 89.1329 231.993 89.4983 231.951L158.57 224.17C158.933 224.126 159.266 224.392 159.307 224.758C159.349 225.125 159.086 225.454 158.719 225.496L89.6489 233.277C89.6236 233.279 89.5983 233.281 89.5729 233.281" fill="#243762"/>
<path d="M88.2396 221.414C87.905 221.414 87.6156 221.164 87.577 220.822C87.537 220.456 87.7996 220.126 88.1649 220.085L118.014 216.721C118.378 216.684 118.711 216.944 118.751 217.31C118.792 217.676 118.53 218.005 118.163 218.048L88.3156 221.41C88.2903 221.413 88.2649 221.414 88.2396 221.414" fill="#243762"/>
<path d="M125.892 217.161C125.557 217.161 125.268 216.91 125.229 216.569C125.189 216.202 125.452 215.873 125.817 215.832L157.226 212.295C157.594 212.259 157.922 212.516 157.965 212.883C158.005 213.248 157.742 213.577 157.377 213.62L125.968 217.157C125.943 217.16 125.917 217.161 125.892 217.161" fill="#243762"/>
<path d="M91.0662 246.6C90.7316 246.6 90.4422 246.35 90.4036 246.008C90.3636 245.642 90.6262 245.312 90.9915 245.271L120.84 241.907C121.203 241.871 121.536 242.13 121.577 242.496C121.619 242.862 121.356 243.191 120.989 243.234L91.1422 246.596C91.1169 246.599 91.0915 246.6 91.0662 246.6" fill="#243762"/>
</svg>
