<svg width="501" height="294" viewBox="0 0 501 294" fill="none" xmlns="http://www.w3.org/2000/svg">
<path d="M500.005 293.318H213.054C219.998 292.223 225.421 286.536 226.137 279.451C226.191 278.925 226.218 278.392 226.218 277.851V277.643H343.88C346.349 277.643 348.263 275.625 348.266 273.227C348.266 273.029 348.254 272.83 348.226 272.627C348.123 271.848 348.052 271.061 348.012 270.264C363.004 270 388.862 269.462 403.206 269.16C403.175 269.678 403.134 270.193 403.082 270.705C403.082 270.718 403.078 270.731 403.078 270.742V270.744C403.075 270.781 403.072 270.817 403.066 270.853C403.044 271.059 403.032 271.262 403.032 271.464C403.029 274.491 405.458 277.024 408.56 277.024H429.929C433.816 277.024 436.965 273.874 436.965 269.988V264.459C436.965 263.291 436.27 262.281 435.268 261.826V250.646C435.268 248.173 435.11 245.699 434.737 243.252C432.56 228.902 425.528 225.888 404.716 221.727C381.752 217.133 352.603 202.158 352.603 202.158C352.603 202.158 302.881 177.798 290.702 175.001C283.439 173.335 269.855 172.945 254.738 172.945C245.44 172.945 235.565 173.094 226.218 173.179V88.0295H232.551V124.751H241.013V137.331H246.851V163.057H253.853V80.5503H257.648V67.6298H290.914V80.5503H294.709V141.778L305.798 141.486V102.31H337.315L338.729 175.949L343.444 175.657V150.801H353.659V131.249H359.786V118.116H383.714V131.249H389.844V150.801H400.059V196.683L408.813 196.391V150.884H438.08V200.653H455.954V179.055H477.553V227.561H500.005V293.317" fill="#E6EBF7"/>
<path d="M134.642 267.338C138.093 264.379 140.18 261.243 139.646 258.123C138.692 252.556 130.79 256.133 130.49 252.113C129.967 245.121 160.13 246.757 159.134 237.791C158.619 233.165 152.202 234.973 146.119 236.783C140.675 238.402 135.5 240.02 135.062 237.029C134.489 233.117 168.009 233.448 168.691 224.553C169.105 219.133 160.008 220.21 151.725 221.29C146.417 221.981 141.442 222.671 139.523 221.651C134.61 219.037 186.783 203.207 181.561 191.576C179.155 186.219 167.017 190.963 155.875 195.708C147.285 199.366 139.286 203.022 136.793 202.054C131.063 199.825 158.857 181.046 167.446 163.861C176.332 146.089 169.07 137.141 155.009 151.275C140.947 165.407 117.808 192.385 116.856 184.259C115.905 176.134 131.711 146.091 118.871 148.34C96.2822 152.296 94.4177 189.672 87.4151 218.884C87.0778 220.29 85.3321 213.53 82.6675 206.77C79.4712 198.66 74.9525 190.55 69.9568 196.538C65.2449 202.184 73.9834 243.764 79.4306 267.338H134.641" fill="#96D9C9"/>
<path d="M254.95 88.9557C254.95 95.5649 249.592 100.925 242.981 100.925C236.372 100.925 231.013 95.5649 231.013 88.9557C231.013 82.3447 236.372 76.9864 242.981 76.9864C249.592 76.9864 254.95 82.3447 254.95 88.9557Z" fill="white"/>
<path d="M193.3 0.931908L193.265 0.920843C192.953 0.806431 192.634 0.706778 192.311 0.612665C192.202 0.581293 192.093 0.548066 191.98 0.51854C191.866 0.489015 191.746 0.461341 191.63 0.433661C191.51 0.404135 191.39 0.376455 191.27 0.35062C191.156 0.324785 191.043 0.302644 190.929 0.2805C190.799 0.25651 190.67 0.232517 190.543 0.212218C190.432 0.193764 190.321 0.177159 190.211 0.160551C190.072 0.140252 189.932 0.123637 189.79 0.107029C189.687 0.0959564 189.585 0.0830425 189.484 0.0738157C189.321 0.0572074 189.159 0.0461425 188.998 0.0350703C188.912 0.0313796 188.827 0.0221456 188.74 0.0184549C188.491 0.00738269 188.24 1.24544e-06 187.989 1.24544e-06H72.2737C72.0044 1.24544e-06 71.7367 0.00737548 71.4708 0.020293C70.9387 0.0479734 70.4141 0.101492 69.8974 0.180843C69.6392 0.219596 69.3831 0.265737 69.129 0.317407C62.5267 1.67375 57.4433 7.21352 56.7507 14.0561C56.6974 14.582 56.6702 15.1154 56.6702 15.656V252.951C56.6702 259.727 60.9607 265.496 66.9637 267.677C66.9902 267.685 67.0174 267.694 67.0439 267.704C67.3414 267.811 67.644 267.906 67.9496 267.994C68.06 268.025 68.1698 268.058 68.2811 268.088C68.3975 268.119 68.5152 268.147 68.6328 268.175C68.7522 268.203 68.8718 268.231 68.9921 268.258C69.1056 268.283 69.22 268.304 69.3346 268.327C69.4626 268.35 69.5916 268.375 69.721 268.395C69.8308 268.415 69.9408 268.431 70.0513 268.448C70.191 268.467 70.3314 268.484 70.4726 268.501C70.5748 268.512 70.6771 268.525 70.7802 268.535C70.9411 268.55 71.1032 268.561 71.2656 268.571C71.3508 268.576 71.4355 268.585 71.5213 268.589C71.7708 268.601 72.0214 268.608 72.2737 268.608H187.989C188.528 268.608 189.059 268.58 189.583 268.527C196.928 267.779 202.765 261.92 203.51 254.551C203.566 254.025 203.591 253.492 203.591 252.951V15.656C203.591 8.87988 199.303 3.11128 193.3 0.931908" fill="#EF613F"/>
<path d="M196.485 247.276H64.2353V21.3369H196.485V247.276Z" fill="#EAFCFC"/>
<path d="M177.968 162.543C170.748 171.356 163.11 180.631 156.433 188.712L117.771 167.234L157.783 149.643L177.968 162.543V162.543ZM167.466 199.342L158.916 225.891L88.4649 200.139L89.7312 179.561L113.249 169.224L167.467 199.343L167.466 199.342ZM87.9207 150.65V126.098L125.493 125.358L148.342 145.202L109.138 162.436L87.9224 150.65L87.9207 150.65ZM71.7358 122.484L92.4437 96.1983L124.245 97.5167V121.446L71.7358 122.484ZM96.9563 53.5497L143.91 73.6901V90.4581L96.9563 88.5104V53.5497ZM149.714 98.5729L151.879 143.065L128.178 122.478V97.6796L149.712 98.5729H149.714ZM196.481 116.514L158.31 113.381L157.222 91.0101L147.843 90.6209V75.3772L196.481 96.2394V91.9583L180.345 85.0368L177.292 21.3373H173.353L176.325 83.3119L147.843 71.096V70.6605H146.828L140.348 67.8813L140.319 21.3373H136.384L136.413 66.1942L96.9536 49.2685V21.3373H89.0852V45.8943L64.2315 35.2335V39.5129L89.0852 50.1738V75.0634L64.2315 63.4613V67.8024L89.0852 79.4046V94.0997L66.6456 122.585L64.2302 122.633V126.566L83.9848 126.177V152.964L104.612 164.424L82.9715 173.937L64.2302 160.563V165.396L81.9291 178.025L81.9439 178.006L77.6811 247.277H85.5642L88.213 204.236L121.463 216.39L117.657 247.277H121.62L125.255 217.776L157.708 229.638L152.026 247.277H156.16L161.406 230.989L196.478 243.81V239.621L162.611 227.242L172.199 197.471L159.928 190.653C164.192 185.49 173.399 174.327 182.587 163.106C188.441 155.959 192.969 150.4 196.478 146.062V139.799C192.127 145.203 186.512 152.103 180.477 159.48L159.911 146.335L158.5 117.346L196.478 120.461V116.515" fill="white"/>
<path d="M159.73 229.704L82.5631 202.128L83.9145 176.992L151.602 147.071L124.83 124.123V95.1172L91.6101 94.1173V67.6859H94.42V91.3915L127.639 92.3897V122.831L156.816 147.84L86.6287 178.865L85.4823 200.186L160.676 227.06L159.731 229.704" fill="#C0DDE3"/>
<path d="M89.432 55.3489C89.4579 53.2864 91.1505 51.6364 93.2125 51.6628C95.2745 51.6892 96.925 53.3804 96.8991 55.4429C96.873 57.5054 95.1804 59.1554 93.1184 59.129C91.0564 59.1043 89.4059 57.4114 89.432 55.3489ZM85.7481 58.3156L92.9487 72.6079L100.507 58.5004C102.745 53.326 99.1527 47.4239 93.5199 47.1896C93.4366 47.1863 93.3529 47.183 93.2689 47.183C93.1851 47.1814 93.1013 47.1814 93.018 47.183C87.3811 47.2754 83.6413 53.0851 85.7481 58.3156" fill="#183658"/>
<path d="M156.414 212.447C156.44 210.385 158.133 208.735 160.196 208.759C162.257 208.786 163.908 210.479 163.882 212.541C163.855 214.602 162.162 216.254 160.1 216.227C158.039 216.201 156.387 214.508 156.414 212.447V212.447ZM152.731 215.412L159.932 229.704L167.489 215.599C169.728 210.424 166.136 204.521 160.503 204.286C160.418 204.283 160.336 204.281 160.252 204.28C160.168 204.278 160.083 204.278 160.001 204.28C154.363 204.372 150.624 210.183 152.731 215.412" fill="#184655"/>
<path d="M158.287 14.2533H102.176C102.097 14.2533 102.032 14.1876 102.032 14.1095V11.5653C102.032 11.4854 102.097 11.4215 102.176 11.4215H158.287C158.365 11.4215 158.431 11.4854 158.431 11.5653V14.1095C158.431 14.1876 158.365 14.2533 158.287 14.2533Z" fill="white"/>
<path d="M156.15 247.279H152.017L153.827 241.657C155.138 241.87 156.45 242.081 157.755 242.291L156.15 247.279V247.279ZM121.61 247.279H117.647L118.511 240.268L122.349 241.282L121.61 247.279ZM85.5545 247.279H77.6716L78.2551 237.799H86.138L85.5545 247.279Z" fill="#D8F0F3"/>
<path d="M196.485 33.3214H177.87L177.296 21.3318H196.485V33.3214ZM173.932 33.3214H140.329L140.322 21.3318H173.358L173.932 33.3214H173.932ZM136.396 33.3214H96.9587V21.3318H136.389L136.397 33.3214H136.396ZM89.09 33.3214H64.2363V21.3318H89.09V33.3214" fill="#C7EEF1"/>
<path d="M177.865 33.3214H173.927L173.352 21.3318H177.291L177.865 33.3214ZM140.324 33.3214H136.39L136.383 21.3318H140.317L140.324 33.3214V33.3214ZM96.9534 33.3214H89.085V21.3318H96.9534V33.3214Z" fill="#D8F0F3"/>
<path d="M377.41 123.846H328.562C326.874 123.846 325.505 125.218 325.505 126.911V147.139C325.505 148.832 326.874 150.205 328.562 150.205H367.019C368.576 152.384 371.397 156.287 371.646 156.287C371.879 156.287 371.43 152.601 371.117 150.205H377.41C379.098 150.205 380.465 148.832 380.465 147.139V126.911C380.465 125.218 379.098 123.846 377.41 123.846Z" fill="#F7CC7F"/>
<path d="M346.279 132.382H332.212C331.973 132.382 331.779 132.188 331.779 131.949V131.479C331.779 131.24 331.973 131.046 332.212 131.046H346.279C346.518 131.046 346.714 131.24 346.714 131.479V131.949C346.714 132.188 346.518 132.382 346.279 132.382Z" fill="white"/>
<path d="M341.444 138.207H332.22C331.981 138.207 331.788 138.014 331.788 137.775V137.305C331.788 137.066 331.981 136.873 332.22 136.873H341.444C341.682 136.873 341.875 137.066 341.875 137.305V137.775C341.875 138.014 341.682 138.207 341.444 138.207Z" fill="white"/>
<path d="M355.06 138.218H344.996C344.756 138.218 344.563 138.025 344.563 137.786V137.316C344.563 137.076 344.756 136.883 344.996 136.883H355.06C355.3 136.883 355.493 137.076 355.493 137.316V137.786C355.493 138.025 355.3 138.218 355.06 138.218Z" fill="white"/>
<path d="M373.973 138.212H359.05C358.81 138.212 358.617 138.019 358.617 137.78V137.31C358.617 137.071 358.81 136.878 359.05 136.878H373.973C374.21 136.878 374.406 137.071 374.406 137.31V137.78C374.406 138.019 374.21 138.212 373.973 138.212Z" fill="white"/>
<path d="M373.973 132.385H350.344C350.105 132.385 349.912 132.191 349.912 131.952V131.482C349.912 131.243 350.105 131.049 350.344 131.049H373.973C374.21 131.049 374.406 131.243 374.406 131.482V131.952C374.406 132.191 374.21 132.385 373.973 132.385Z" fill="white"/>
<path d="M351.353 144.158H332.211C331.974 144.158 331.78 143.963 331.78 143.724V143.253C331.78 143.016 331.974 142.821 332.211 142.821H351.353C351.59 142.821 351.784 143.016 351.784 143.253V143.724C351.784 143.963 351.59 144.158 351.353 144.158Z" fill="white"/>
<path d="M373.973 144.156H354.828C354.588 144.156 354.393 143.961 354.393 143.722V143.252C354.393 143.014 354.588 142.82 354.828 142.82H373.973C374.21 142.82 374.406 143.014 374.406 143.252V143.722C374.406 143.961 374.21 144.156 373.973 144.156Z" fill="white"/>
<path d="M386.889 203.123C395.624 204.46 405.684 212.732 405.684 212.732C408.088 215.316 406.104 219.511 402.581 219.289L385.548 218.213C382.012 217.989 378.995 215.57 378.007 212.164C376.35 206.445 377.761 201.724 386.889 203.123" fill="#F3FCFF"/>
<path d="M126.529 237.799H126.528C126.561 237.603 126.596 237.407 126.632 237.21H126.634C126.597 237.407 126.562 237.603 126.529 237.799Z" fill="#E9D7A0"/>
<path d="M126.293 239.494C126.294 239.482 126.296 239.473 126.297 239.461C126.296 239.473 126.294 239.482 126.293 239.494ZM126.299 239.444C126.361 238.892 126.438 238.342 126.528 237.799H126.529C126.438 238.342 126.361 238.892 126.299 239.444Z" fill="#C6CB99"/>
<path d="M380.452 245.854V245.852V245.854ZM380.457 245.815C380.509 245.303 380.549 244.788 380.577 244.27H380.579C380.549 244.788 380.509 245.303 380.457 245.815Z" fill="#E5C99D"/>
<path d="M374.76 166.013L374.364 166.37C374.159 166.553 373.852 166.546 373.677 166.353L366.631 158.581C366.458 158.388 366.48 158.083 366.686 157.9L367.081 157.543C367.284 157.36 367.594 157.367 367.769 157.56L374.815 165.332C374.988 165.525 374.966 165.83 374.76 166.013Z" fill="#183658"/>
<path d="M398.629 159.701C397.687 158.932 390.404 162.138 390.496 163.255C390.588 164.37 385.417 175.191 385.417 175.191L376.475 168.038L376.472 168.04C376.393 167.781 375.544 164.999 375.502 164.502C375.46 163.979 373.949 163.065 373.247 163.201C372.546 163.336 373.848 164.219 373.933 164.38C374.165 164.822 373.266 164.987 373.266 164.987C373.266 164.987 370.681 163.565 370.626 162.729C370.573 161.892 370.041 160.138 369.481 160.504C369.194 160.694 369.197 161.938 369.286 162.529C369.12 161.859 368.886 161.102 368.656 161.026C368.237 160.889 368.028 161.424 368.105 161.684C368.181 161.946 368.857 164.791 369.06 165.113C369.263 165.425 373.434 168.797 374.036 169.53C374.036 169.53 385.602 182.796 386.424 183.143C387.144 183.446 389.723 178.876 392.157 175.84C394.591 172.805 401.572 162.101 398.629 159.701" fill="#F7A491"/>
<path d="M421.952 257.247C421.952 257.247 423.541 258.802 423.577 259.374C423.614 259.944 423.718 266.063 423.07 266.633C422.42 267.204 420.516 267.609 421.127 268.25C421.592 268.737 425.154 268.633 427.513 268.503C428.203 268.465 429.068 262.947 429.341 262.135C429.738 260.959 430.701 258.306 430.34 257.484C430.166 257.085 429.324 256.263 428.141 255.496C426.897 254.689 425.706 252.892 425.706 252.892L421.952 257.247Z" fill="#F48C7F"/>
<path d="M405.494 260.871L406.918 264.912C407.023 265.55 407.44 267.129 407.44 267.71C407.44 269.892 397.638 265.859 399.832 264.892C400.033 264.805 400.656 264.105 400.72 263.363C400.824 262.219 399.896 260.785 399.896 260.785L405.494 260.871Z" fill="#F7A491"/>
<path d="M390.104 185.806C390.104 185.806 389.39 193.032 389.39 193.141C389.39 204.831 387.081 227.665 387.521 229.862C388.592 235.223 400.125 262.571 400.125 262.571L406.356 261.824L398.234 229.08L401.223 215.902L405.452 189.852L390.104 185.806" fill="#355389"/>
<path d="M411.06 192.194L412.24 199.043L415.442 227.232L427.627 254.784C427.627 254.784 425.913 258.792 423.385 259.354L403.989 231.068L391.944 194.872L392.366 186.832L411.06 192.193" fill="#466EB6"/>
<path d="M387.641 168.594L396.283 169.48C396.283 169.48 396.679 162.37 396.679 158.979C396.679 154.864 396.33 149.566 395.834 149.68C394.445 150 392.573 150.769 391.457 152.307C387.602 157.621 387.641 168.594 387.641 168.594" fill="#3C8F7C"/>
<path d="M391.878 158.255C391.696 159.509 388.377 193.612 388.377 193.612C404.113 201.239 412.794 194.97 412.794 194.97C412.794 194.97 412.279 171.024 412.897 167.762C413.307 165.606 413.814 151.276 412.422 150.875C410.635 150.36 408.585 149.812 406.35 149.579C404.446 149.381 397.039 149.266 395.713 149.713C395.713 149.713 392.64 152.978 391.878 158.254" fill="#50BFA5"/>
<path d="M428.079 255.454C428.079 255.454 424.416 265.802 422.983 266.302C422.603 266.436 420.775 266.772 420.431 267.582C420.327 267.826 420.431 268.642 420.431 268.642H428.065C428.065 268.642 429.03 264.083 429.413 262.079C429.413 262.079 431.433 257.185 431.207 256.74C430.984 256.294 428.079 255.454 428.079 255.454" fill="#50BFA5"/>
<path d="M408.01 268.428L406.889 264.869C406.889 264.869 404.531 265.871 403.35 265.704C402.173 265.538 399.871 264.869 399.871 264.869C395.166 266.424 391.311 267.178 392.013 268.428H408.01Z" fill="#50BFA5"/>
<path d="M386.426 183.145C386.39 183.13 386.262 183.03 386.188 182.969C386.467 179.628 386.418 176.39 385.372 175.295C385.397 175.244 385.627 174.755 385.864 174.25C387.076 175.191 387.65 177.687 387.426 181.741C387.411 182.02 387.331 182.233 387.265 182.579C386.916 182.967 386.597 183.216 386.426 183.145" fill="#F7A491"/>
<path d="M428.383 193.974C428.392 193.901 428.394 193.827 428.386 193.754C428.156 191.393 426.202 171.56 425.871 170.716C425.573 169.956 416.808 157.378 416.808 157.378L412.499 163.267L420.93 174.548C421.118 175.266 424.161 188.654 424.161 188.654C424.161 188.654 424.784 191.093 425.065 192.555C424.936 192.908 424.812 193.239 424.7 193.513C424.419 194.096 424.091 194.574 423.79 194.977C423.414 195.485 422.791 196.591 422.715 196.888C422.628 197.232 422.465 197.949 422.375 198.379C422.283 198.812 422.159 199.315 422.137 199.549C422.126 199.693 421.98 199.976 421.864 200.178C421.696 200.476 421.982 200.831 422.308 200.722C422.614 200.62 422.853 200.222 422.999 199.975C423.414 199.275 423.636 197.998 423.74 198.066C423.844 198.132 424.206 200.3 424.265 200.544C424.321 200.79 424.756 203.306 425.003 203.766C425.247 204.227 425.576 204.149 425.66 203.86C425.736 203.613 425.388 200.092 425.388 200.092C425.388 200.092 425.346 199.643 425.542 199.783C425.739 199.923 426.059 203.12 426.196 203.588C426.331 204.055 426.643 204.304 426.906 203.928C427.226 203.471 426.676 200.08 426.676 200.08C426.676 200.08 426.614 199.653 426.794 199.693C426.977 199.732 427.204 202.458 427.344 202.692C427.485 202.928 427.841 203.012 428.013 202.62C428.212 202.158 427.695 199.135 427.695 199.135C427.695 199.135 427.721 198.894 427.833 198.975C427.945 199.054 428.304 201.363 428.537 201.577C428.734 201.757 428.9 201.582 428.9 201.582C429.329 201.288 428.669 199.092 428.678 198C428.683 196.909 428.178 195.681 428.33 194.381C428.338 194.3 428.366 194.099 428.383 193.974" fill="#F8A492"/>
<path d="M423.663 165.344L416.177 170.388C416.177 170.388 411.955 164.087 409.689 161.845C406.853 159.035 410.726 150.427 412.553 150.914C416.643 152.002 423.663 165.344 423.663 165.344" fill="#3C8F7C"/>
<path d="M405.813 142.208L406.934 149.615C406.934 149.615 402.844 158.432 400.401 157.668C398.353 157.026 399.613 149.224 399.613 149.224C399.613 149.224 400.729 145.032 400.395 142.935C400.059 140.84 405.813 142.208 405.813 142.208" fill="#F7A491"/>
<path d="M400.372 142.941C400.036 140.846 405.789 142.214 405.789 142.214L405.882 142.828C405.715 143.238 405.507 143.59 405.259 143.861C403.973 145.248 401.965 146.081 400.231 146.144C400.404 145.014 400.51 143.803 400.372 142.941Z" fill="#F47458"/>
<path d="M406.752 131.729C406.913 131.669 408.056 140.164 405.89 142.502C403.724 144.838 399.509 145.604 397.996 143.762C396.323 141.726 396.406 132.597 399.774 130.192C403.136 127.788 406.752 131.729 406.752 131.729" fill="#F7A491"/>
<path d="M401.065 125.65C403.666 126.182 405.35 127.777 405.969 128.457C407.151 128.597 408.757 129.252 410.414 132.006C412.453 135.393 410.947 139.146 408.576 140.985C406.202 142.827 406.234 144.952 406.234 144.952L405.859 143.853C405.583 143.02 405.469 142.137 405.561 141.263C405.618 140.738 405.732 140.17 405.948 139.705C406.516 138.476 404.72 137.659 404.215 136.636C403.828 135.849 403.809 134.046 403.198 132.745L402.468 131.751C402.468 131.751 400.787 130.436 399.137 130.807C397.491 131.178 397.726 124.967 401.065 125.65" fill="#184655"/>
<path d="M404.29 138.155C404.274 139.191 404.746 140.039 405.341 140.051C405.935 140.061 406.434 139.229 406.45 138.193C406.469 137.157 405.999 136.307 405.402 136.297C404.805 136.287 404.309 137.119 404.29 138.155Z" fill="#F7A491"/>
<path d="M400.802 140.541L397.54 140.373C397.54 140.373 397.548 141.621 398.983 141.736C400.728 141.878 400.802 140.541 400.802 140.541" fill="white"/>
<path d="M233.428 90.5753C233.495 85.3011 237.824 81.0809 243.099 81.1462C248.373 81.2133 252.593 85.5424 252.528 90.8166C252.461 96.0909 248.132 100.311 242.859 100.246C237.583 100.179 233.363 95.8496 233.428 90.5753V90.5753ZM224.008 98.1611L242.424 134.718L261.756 98.6383C267.478 85.4027 258.29 70.3037 243.884 69.705C243.672 69.6959 243.458 69.6905 243.244 69.6886C243.028 69.685 242.814 69.685 242.601 69.6886C228.183 69.9245 218.619 84.7876 224.008 98.1611" fill="#F47458"/>
<path d="M480.843 273.084H2.07076C0.927155 273.084 0 272.157 0 271.014V270.499C0 269.355 0.927155 268.428 2.07076 268.428H480.843C481.984 268.428 482.912 269.355 482.912 270.499V271.014C482.912 272.157 481.984 273.084 480.843 273.084" fill="#183658"/>
<path d="M266.831 120.483H311.648C311.648 120.483 308.824 111.119 300.707 109.493C292.591 107.862 292.944 115.191 285.886 115.598C278.83 116.005 276.712 111.119 271.419 113.969C266.126 116.819 266.831 120.483 266.831 120.483V120.483Z" fill="#F1F2F2"/>
<path d="M253.855 161.285H301.717V147.785C301.717 146.093 300.526 144.718 299.057 144.718H256.513C255.045 144.718 253.855 146.093 253.855 147.785V161.285Z" fill="#FEDA4E"/>
<path d="M257.041 161.285H304.903V147.785C304.903 146.093 303.711 144.718 302.243 144.718H259.699C258.231 144.718 257.041 146.093 257.041 147.785V161.285Z" fill="#374148"/>
<path d="M199.594 248.933H325.031V217.215H199.594V248.933Z" fill="#212826"/>
<path d="M195.098 256.614H391.831C393.968 256.614 395.698 254.618 395.698 252.155V249.922C395.698 247.46 393.968 245.464 391.831 245.464H195.098C192.964 245.464 191.231 247.46 191.231 249.922V252.155C191.231 254.618 192.964 256.614 195.098 256.614Z" fill="#212826"/>
<path d="M338.554 247.067C338.554 258.522 346.604 267.81 356.533 267.81C366.462 267.81 374.512 258.522 374.512 247.067C374.512 235.613 366.462 226.322 356.533 226.322C346.604 226.322 338.554 235.613 338.554 247.067V247.067Z" fill="#17242B"/>
<path d="M248.356 247.067C248.356 258.522 256.407 267.81 266.337 267.81C276.267 267.81 284.317 258.522 284.317 247.067C284.317 235.613 276.267 226.322 266.337 226.322C256.407 226.322 248.356 235.613 248.356 247.067V247.067Z" fill="#17242B"/>
<path d="M293.376 245.251C293.376 257.645 302.941 267.693 314.738 267.693C326.538 267.693 336.103 257.645 336.103 245.251C336.103 232.86 326.539 222.812 314.738 222.812C302.941 222.812 293.376 232.86 293.376 245.251Z" fill="#17242B"/>
<path d="M292.866 245.251C292.866 257.645 301.572 267.693 312.315 267.693C323.058 267.693 331.764 257.645 331.764 245.251C331.764 232.86 323.057 222.812 312.315 222.812C301.572 222.812 292.866 232.86 292.866 245.251Z" fill="#2F393C"/>
<path d="M292.866 245.251C292.866 257.645 301.572 267.693 312.315 267.693C323.058 267.693 331.764 257.645 331.764 245.251C331.764 232.86 323.057 222.812 312.315 222.812C301.572 222.812 292.866 232.86 292.866 245.251Z" fill="#212826"/>
<path d="M296.469 245.251C296.469 254.951 303.284 262.811 311.69 262.811C320.097 262.811 326.91 254.951 326.91 245.251C326.91 235.554 320.097 227.694 311.69 227.694C303.284 227.694 296.469 235.554 296.469 245.251Z" fill="#48606C"/>
<path d="M294.918 246.482C295.819 246.482 296.563 247.246 296.716 248.265C297.952 256.536 304.192 262.824 311.711 262.824C319.228 262.824 325.471 256.536 326.704 248.265C326.858 247.246 327.604 246.482 328.505 246.482H329.734C330.863 246.482 331.711 247.653 331.535 248.94C330.063 259.651 322.023 267.839 312.326 267.839C302.629 267.839 294.59 259.651 293.117 248.94C292.941 247.653 293.789 246.482 294.918 246.482H294.918Z" fill="#374148"/>
<path d="M302.051 245.251C302.051 251.351 306.337 256.296 311.623 256.296C316.911 256.296 321.195 251.351 321.195 245.251C321.195 239.152 316.911 234.208 311.623 234.208C306.337 234.208 302.051 239.152 302.051 245.251V245.251Z" fill="#C4CAD1"/>
<path d="M325.747 244.358C325.299 244.358 324.908 243.977 324.855 243.465C324.081 235.814 318.457 229.874 311.617 229.874C304.778 229.874 299.153 235.814 298.38 243.465C298.327 243.977 297.936 244.358 297.488 244.358C296.942 244.358 296.528 243.802 296.593 243.176C297.488 234.464 303.914 227.711 311.704 227.711C319.497 227.711 325.921 234.464 326.818 243.176C326.883 243.802 326.467 244.358 325.921 244.358H325.747Z" fill="#524F5E"/>
<path d="M206.615 245.251C206.615 257.645 216.179 267.693 227.977 267.693C239.777 267.693 249.341 257.645 249.341 245.251C249.341 232.86 239.777 222.812 227.977 222.812C216.179 222.812 206.615 232.86 206.615 245.251Z" fill="#17242B"/>
<path d="M206.105 245.251C206.105 257.645 214.811 267.693 225.554 267.693C236.297 267.693 245.003 257.645 245.003 245.251C245.003 232.86 236.297 222.812 225.554 222.812C214.811 222.812 206.105 232.86 206.105 245.251Z" fill="#2F393C"/>
<path d="M206.105 245.251C206.105 257.645 214.811 267.693 225.554 267.693C236.297 267.693 245.003 257.645 245.003 245.251C245.003 232.86 236.297 222.812 225.554 222.812C214.811 222.812 206.105 232.86 206.105 245.251Z" fill="#212826"/>
<path d="M209.708 245.251C209.708 254.951 216.523 262.811 224.929 262.811C233.336 262.811 240.148 254.951 240.148 245.251C240.148 235.554 233.336 227.694 224.929 227.694C216.523 227.694 209.708 235.554 209.708 245.251Z" fill="#48606C"/>
<path d="M208.129 246.482C209.031 246.482 209.774 247.246 209.928 248.265C211.164 256.536 217.404 262.824 224.922 262.824C232.44 262.824 238.682 256.536 239.917 248.265C240.07 247.246 240.814 246.482 241.716 246.482H242.945C244.075 246.482 244.923 247.653 244.746 248.94C243.274 259.651 235.235 267.839 225.537 267.839C215.84 267.839 207.801 259.651 206.329 248.94C206.153 247.653 207.001 246.482 208.129 246.482Z" fill="#374148"/>
<path d="M214.947 245.211C214.947 251.311 219.232 256.255 224.518 256.255C229.806 256.255 234.091 251.311 234.091 245.211C234.091 239.113 229.806 234.168 224.518 234.168C219.232 234.168 214.947 239.113 214.947 245.211V245.211Z" fill="#C4CAD1"/>
<path d="M238.966 244.358C238.518 244.358 238.127 243.977 238.074 243.465C237.3 235.814 231.677 229.874 224.836 229.874C217.996 229.874 212.375 235.814 211.598 243.465C211.546 243.977 211.156 244.358 210.707 244.358C210.163 244.358 209.747 243.802 209.811 243.176C210.707 234.464 217.133 227.711 224.925 227.711C232.718 227.711 239.141 234.464 240.038 243.176C240.102 243.802 239.687 244.358 239.143 244.358H238.966Z" fill="#524F5E"/>
<path d="M349.084 249.479V244.964L346.989 242.224C346.989 231.787 344.331 225.647 342.474 222.63C341.916 221.825 341.33 221.044 340.711 220.29C330.904 208.308 316.481 207.645 308.404 194.331C300.327 181.018 291.673 157.723 272.057 157.723H324.262C343.877 157.723 352.53 181.018 360.609 194.331C368.686 207.645 383.11 208.308 392.917 220.29C393.534 221.044 394.12 221.825 394.68 222.63C396.535 225.647 399.196 231.787 399.196 242.224L401.29 244.964V249.479C401.29 250.634 400.476 251.573 399.473 251.573H347.267C348.271 251.573 349.085 250.634 349.085 249.479H349.084Z" fill="#FEDA4E"/>
<path d="M188.494 218.159L192.171 212.325C196.116 181.84 206.53 167.531 212.725 161.524C215.258 159.07 218.468 157.746 221.777 157.746H274.955C294.57 157.746 303.224 181.041 311.303 194.354C319.378 207.667 333.801 208.333 343.611 220.313C344.227 221.066 344.813 221.849 345.373 222.655C347.229 225.671 349.887 231.809 349.887 242.246L351.982 244.989V249.5C351.982 250.659 351.169 251.595 350.166 251.595H333.046C331.475 251.595 330.295 249.967 330.553 248.181C330.851 246.118 330.917 243.967 330.714 241.761C329.676 230.409 321.534 221.432 311.657 220.735C299.776 219.897 289.916 230.767 289.916 244.291C289.916 245.35 289.977 246.392 290.094 247.412C290.35 249.638 288.806 251.595 286.861 251.595H248.011C245.514 251.595 243.564 249.13 243.773 246.261C243.879 244.795 243.867 243.29 243.727 241.761C242.688 230.409 234.546 221.432 224.669 220.735C212.789 219.897 202.927 230.767 202.927 244.291C202.927 245.53 203.011 246.747 203.169 247.932C203.431 249.856 202.155 251.595 200.467 251.595H192.459C189.752 251.595 187.557 249.063 187.557 245.939V221.488C187.557 220.293 187.885 219.126 188.494 218.159V218.159Z" fill="#FEDA4E"/>
<path d="M302.274 193.925H226.058C225.783 193.925 225.512 193.845 225.281 193.694L207.322 182.01C206.871 181.714 206.614 181.193 206.669 180.655C206.913 178.267 208.449 171.477 217.832 164.458C218.396 164.037 219.087 163.817 219.792 163.817H280.17C280.88 163.817 281.566 164.039 282.151 164.448C285.46 166.775 296.754 175.596 303.596 191.897C303.998 192.859 303.304 193.925 302.274 193.925" fill="white"/>
<path d="M302.293 192.982H226.305C226.03 192.982 225.76 192.901 225.529 192.753L207.624 181.065C207.175 180.769 206.918 180.251 206.973 179.712C207.215 177.325 208.747 170.532 218.101 163.515C218.665 163.092 219.355 162.874 220.057 162.874H280.256C280.962 162.874 281.648 163.096 282.229 163.504C285.529 165.83 296.79 174.654 303.612 190.953C304.014 191.914 303.321 192.982 302.293 192.982" fill="#2C8CA5"/>
<path d="M223.882 168.549C224.491 168.092 225.236 167.855 225.996 167.855H287.516C292.355 172.343 298.992 179.943 303.604 190.96C304.005 191.921 303.314 192.989 302.286 192.989H226.295C226.02 192.989 225.753 192.908 225.521 192.759L212.21 184.069C213.065 180.639 215.716 174.676 223.882 168.549V168.549Z" fill="#47BBE4"/>
<path d="M219.684 182.671C220.292 182.213 221.038 181.979 221.797 181.979H283.318C286.122 184.58 289.53 188.235 292.799 192.988H226.286C226.011 192.988 225.742 192.906 225.51 192.755L215.505 186.225C216.709 185.059 218.088 183.869 219.684 182.671V182.671Z" fill="#2C8CA5"/>
<path d="M351.455 188.784C343.934 174.714 338.216 167.488 335.45 164.406C334.361 163.193 332.9 162.532 331.386 162.563L297.984 163.262C297.308 163.276 296.985 164.23 297.479 164.762C300.093 167.597 306.083 174.928 314.087 189.966C315.048 191.774 316.775 192.858 318.614 192.821L349.86 192.166C351.346 192.133 352.237 190.244 351.456 188.784H351.455Z" fill="#2C8CA5"/>
<path d="M329.01 166.515C330.524 166.482 331.983 167.143 333.074 168.357C335.803 171.396 341.408 178.482 348.775 192.174L318.602 192.806C316.762 192.846 315.035 191.762 314.073 189.954C307.736 178.041 302.66 170.966 299.524 167.132L329.01 166.515Z" fill="#47BBE4"/>
<path d="M343.62 220.302C344.236 221.056 344.823 221.837 345.382 222.642C347.238 225.658 349.898 231.799 349.898 242.236L351.993 244.976V249.49C351.993 250.646 351.179 251.585 350.175 251.585H333.055C331.484 251.585 330.304 249.956 330.562 248.168C330.86 246.106 330.926 243.956 330.725 241.75C329.685 230.396 321.544 221.421 311.667 220.723C299.786 219.886 289.925 230.754 289.925 244.281C289.925 245.339 289.986 246.381 290.104 247.402C290.36 249.626 288.815 251.585 286.871 251.585H248.021C245.524 251.585 243.576 249.12 243.782 246.25C243.889 244.784 243.877 243.28 243.737 241.75C242.697 230.396 234.555 221.421 224.68 220.723C212.799 219.886 202.936 230.754 202.936 244.281C202.936 245.519 203.02 246.734 203.18 247.919C203.442 249.845 202.165 251.585 200.476 251.585H192.469C189.762 251.585 187.566 249.052 187.566 245.929V221.475C187.566 220.28 187.894 219.115 188.504 218.149L192.183 212.315C192.228 211.956 192.279 211.614 192.327 211.262H332.764C336.621 213.615 340.372 216.338 343.616 220.302H343.62Z" fill="#FEBC2F"/>
<path d="M351.664 229.601H360.35C361.035 229.601 361.591 228.96 361.591 228.17V225.1C361.591 224.311 361.035 223.671 360.35 223.671H351.664C350.979 223.671 350.423 224.311 350.423 225.1V228.17C350.423 228.96 350.979 229.601 351.664 229.601Z" fill="#FEE8A9"/>
<path d="M397.618 229.601H389.598C388.913 229.601 388.359 228.96 388.359 228.17V225.1C388.359 224.311 388.913 223.669 389.598 223.669H395.267C396.053 225.12 396.906 227.06 397.618 229.601" fill="#FEE8A9"/>
<path d="M187.092 248.556H190.958C192.232 248.556 193.265 247.363 193.265 245.892V233.75C193.265 232.277 192.232 231.086 190.958 231.086H187.092C186.054 231.086 185.212 232.058 185.212 233.255V246.389C185.212 247.586 186.054 248.556 187.092 248.556" fill="#212826"/>
<path d="M362.252 244.09H390.281V236.657C390.281 235.015 389.127 233.684 387.704 233.684H364.828C363.405 233.684 362.252 235.015 362.252 236.657V244.09Z" fill="#FEA100"/>
<path d="M346.56 252.386H397.894C399.376 252.386 400.579 250.999 400.579 249.289V245.573C400.579 243.861 399.376 242.475 397.894 242.475H346.56C345.077 242.475 343.876 243.861 343.876 245.573V249.289C343.876 250.999 345.077 252.386 346.56 252.386Z" fill="#212826"/>
<path d="M355.193 252.386H399.063C400.562 252.386 401.774 250.983 401.774 249.256V245.6C401.774 243.874 400.562 242.475 399.063 242.475H355.193C353.696 242.475 352.482 243.874 352.482 245.6V249.256C352.482 250.983 353.696 252.386 355.193 252.386Z" fill="#374148"/>
<path d="M357.907 249.3H366.606C367.496 249.3 368.217 248.466 368.217 247.439C368.217 246.415 367.496 245.583 366.606 245.583H357.907C357.017 245.583 356.296 246.415 356.296 247.439C356.296 248.466 357.017 249.3 357.907 249.3Z" fill="#212826"/>
<path d="M388.827 249.3H397.525C398.416 249.3 399.137 248.466 399.137 247.439C399.137 246.415 398.416 245.583 397.525 245.583H388.827C387.937 245.583 387.217 246.415 387.217 247.439C387.217 248.466 387.937 249.3 388.827 249.3Z" fill="#212826"/>
<path d="M393.393 240.617H399.085C399.528 240.617 399.889 240.203 399.889 239.689V237.334C399.889 236.822 399.528 236.406 399.085 236.406H393.393C392.949 236.406 392.588 236.822 392.588 237.334V239.689C392.588 240.203 392.949 240.617 393.393 240.617Z" fill="#FEA100"/>
<path d="M365.951 229.234H384.422C385.075 229.234 385.604 228.626 385.604 227.87V225.268C385.604 224.517 385.075 223.907 384.422 223.907H365.951C365.299 223.907 364.769 224.517 364.769 225.268V227.87C364.769 228.626 365.299 229.234 365.951 229.234" fill="#374148"/>
<path d="M353.542 240.617H359.234C359.678 240.617 360.039 240.203 360.039 239.689V237.334C360.039 236.822 359.678 236.406 359.234 236.406H353.542C353.098 236.406 352.736 236.822 352.736 237.334V239.689C352.736 240.203 353.098 240.617 353.542 240.617Z" fill="#FEA100"/>
<path d="M203.067 241.688H191.702C191.662 241.252 191.607 240.822 191.545 240.389H203.225C203.162 240.822 203.109 241.252 203.067 241.688Z" fill="#17242B"/>
<path d="M264.973 206.052H273.135C274.142 206.052 274.96 205.108 274.96 203.946C274.96 202.783 274.142 201.84 273.135 201.84H264.973C263.965 201.84 263.147 202.783 263.147 203.946C263.147 205.108 263.965 206.052 264.973 206.052V206.052Z" fill="#374148"/>
<path d="M208.872 206.052H217.035C218.042 206.052 218.86 205.108 218.86 203.946C218.86 202.783 218.042 201.84 217.035 201.84H208.872C207.865 201.84 207.047 202.783 207.047 203.946C207.047 205.108 207.865 206.052 208.872 206.052V206.052Z" fill="#374148"/>
<path d="M258.146 192.982H253.156L257.861 166.033H262.724L258.146 192.982Z" fill="#2C8CA5"/>
<path d="M336.542 216.035H354.597C355.026 216.035 355.448 216.164 355.821 216.405L361.113 219.85C361.388 220.027 361.701 220.124 362.018 220.124H384.499C385.169 220.124 385.786 219.706 386.11 219.029L386.905 217.379C387.055 217.07 387.252 216.796 387.489 216.567L388.372 215.715C388.552 215.866 388.728 216.017 388.907 216.171L387.901 217.138C387.725 217.306 387.58 217.51 387.47 217.738L386.673 219.39C386.235 220.301 385.402 220.868 384.499 220.868H362.018C361.591 220.868 361.168 220.739 360.796 220.498L355.504 217.052C355.227 216.874 354.914 216.779 354.597 216.779H337.375C337.098 216.527 336.821 216.275 336.542 216.035H336.542Z" fill="#FEBC2F"/>
<path d="M187.584 230.038H190.353C190.707 230.038 191.013 229.742 191.073 229.339L191.41 227.124C191.487 226.607 191.142 226.135 190.688 226.135H187.584V230.038Z" fill="#F26741"/>
<g opacity="0.28">
<g opacity="0.28">
<path opacity="0.28" d="M326.791 192.634L319.265 192.79L320.726 162.773L328.251 162.616L326.791 192.634Z" fill="#FBF9FA"/>
</g>
</g>
<path d="M266.023 161.771L260.706 193.55H255.713L261.19 161.771H266.023Z" fill="#DFE5F5"/>
<path d="M281.933 243.653H287.061V237.737H281.933V243.653Z" fill="#212826"/>
<path d="M276.815 249.568H281.946V243.651H276.815V249.568Z" fill="#212826"/>
<path d="M271.67 243.653H276.799V237.737H271.67V243.653Z" fill="#212826"/>
<path d="M266.552 249.568H271.681V243.651H266.552V249.568Z" fill="#212826"/>
<path d="M261.406 243.653H266.537V237.737H261.406V243.653Z" fill="#212826"/>
<path d="M256.289 249.568H261.417V243.651H256.289V249.568Z" fill="#212826"/>
<path d="M251.161 243.653H256.29V237.737H251.161V243.653Z" fill="#212826"/>
<path d="M246.044 249.568H251.174V243.651H246.044V249.568Z" fill="#212826"/>
<path d="M321.194 245.251C321.194 251.352 316.908 256.298 311.622 256.298C306.334 256.298 302.051 251.352 302.051 245.251C302.051 245.177 302.067 245.107 302.069 245.029H321.175C321.177 245.107 321.194 245.177 321.194 245.251Z" fill="#AEB0B6"/>
<path d="M234.006 245.301C234.006 251.401 229.721 256.346 224.435 256.346C219.146 256.346 214.862 251.401 214.862 245.301C214.862 245.226 214.879 245.156 214.881 245.078H233.986C233.988 245.156 234.006 245.226 234.006 245.301V245.301Z" fill="#AEB0B6"/>
</svg>
