<svg width="300" height="159" viewBox="0 0 300 159" fill="none" xmlns="http://www.w3.org/2000/svg">
	<defs>
		<linearGradient id="paint0_linear" x1="189.658" y1="-8.17965" x2="233.508" y2="112.665" gradientUnits="userSpaceOnUse">
			<stop stop-color="#FF7D49" />
			<stop offset="0.354843" stop-color="#FF7D49" />
			<stop offset="1" stop-color="#D32F2F" />
		</linearGradient>
		<linearGradient id="paint1_linear" x1="90.3698" y1="43.6941" x2="140.331" y2="113.639" gradientUnits="userSpaceOnUse">
			<stop stop-color="#CAE9B1" />
			<stop offset="0.160455" stop-color="#CAE9B1" />
			<stop offset="0.994595" stop-color="#00A95E" />
			<stop offset="1" stop-color="#00A95E" />
		</linearGradient>
		<linearGradient id="paint2_linear" x1="122.47" y1="67.2359" x2="124.854" y2="76.5796" gradientUnits="userSpaceOnUse">
			<stop stop-color="#FCC198" />
			<stop offset="0.507467" stop-color="#FCC198" />
			<stop offset="1" stop-color="#E66776" />
		</linearGradient>
		<linearGradient id="paint3_linear" x1="118.502" y1="36.5921" x2="131.87" y2="88.9822" gradientUnits="userSpaceOnUse">
			<stop stop-color="#FCC198" />
			<stop offset="0.507467" stop-color="#FCC198" />
			<stop offset="1" stop-color="#E66776" />
		</linearGradient>
		<linearGradient id="paint4_linear" x1="106.677" y1="47.4684" x2="138.733" y2="47.4684" gradientUnits="userSpaceOnUse">
			<stop stop-color="#FF7D49" />
			<stop offset="0.354843" stop-color="#FF7D49" />
			<stop offset="1" stop-color="#D32F2F" />
		</linearGradient>
		<clipPath id="clip0">
			<rect width="300" height="159" fill="white" />
		</clipPath>
	</defs>
	<g clip-path="url(#clip0)">
		<path d="M196.274 158.313V111.12L192.94 111.246V113.468H190.397V104.705H187.265V100.314H176.212V104.705H173.08V136.782L167.359 136.965V130.661H165.915V128.34L162.591 128.107V123.791L158.928 124.462V121.025L151.558 122.372V97.9532H147.142V94.4975L139.841 92.4207V97.9532H135.427V133.921H130.796L130.475 136.538H128.761V134.741L120.004 134.341V136.538H118.289V126.875H114.949V126.169H113.234V124.374L109.95 124.222V121.418H107.405V118.702L97.0125 119.1V112.392H80.8816V122.091L76.6965 122.25L69.7367 120.722V123.499L67.2668 122.959V133.603H60.1935V111.137H58.081V107.587H50.6272V111.137H48.79V106.197H46.646V102.685L35.7007 103.326V106.197H33.5588V123.516H32.9891V118.219H31.2739V116.422L29.3821 116.335V106.197H27.238V102.685L16.2928 103.326V106.197H14.1487V121.429L11.2143 120.911V129.847H8.34083V127.863L4.48572 125.876H0V158.313H196.274Z" fill="#E6EBF7" />
		<path d="M300 158.313V60.3166L297.08 60.4427V62.6645H294.852V53.9012H292.109V49.5101H282.427V53.9012H279.682V85.9759L274.671 86.1609V79.8549H273.407V77.5363L270.494 77.303V72.9875L267.286 73.6581V70.2213L260.829 71.5687V47.1474H256.959V43.6917L250.567 41.617V47.1474H246.701V83.1151H242.644L242.362 85.7342H240.86V83.937L233.191 83.5376V85.7342H231.688V76.0691H228.76V75.3628H227.259V73.5677L224.382 73.4185V70.6144H222.154V67.8986L213.05 68.2937V61.5883H198.92V71.2849L195.254 71.4447L189.156 69.9186V72.6954L186.993 72.1531V82.7998H180.796V60.3313H178.947V56.7831H172.42V60.3313H170.808V55.3915H168.93V51.8812L159.343 52.5223V55.3915H157.464V72.7101H156.966V67.413H155.465V65.6179L153.806 65.5317V55.3915H151.929V51.8812L142.342 52.5223V55.3915H140.465V70.6249L137.892 70.1078V79.0435H135.376V77.0571L131.998 75.0706H128.069V158.313H300Z" fill="#E6EBF7" />
		<path d="M162.929 134.037H77.553C76.6723 134.037 75.9576 133.322 75.9576 132.442V14.0494C75.9576 13.1708 76.6723 12.4561 77.553 12.4561H162.929C163.809 12.4561 164.524 13.1708 164.524 14.0494V132.442C164.524 133.322 163.809 134.037 162.929 134.037Z" fill="#F9FBFC" />
		<path d="M128.988 3.8551H111.493C110.428 3.8551 109.566 2.99117 109.566 1.92755C109.566 0.863931 110.428 0 111.493 0H128.988C130.052 0 130.916 0.863931 130.916 1.92755C130.916 2.99117 130.052 3.8551 128.988 3.8551Z" fill="white" />
		<path d="M125.429 144.563C125.429 147.431 123.106 149.753 120.239 149.753C117.374 149.753 115.051 147.431 115.051 144.563C115.051 141.698 117.374 139.374 120.239 139.374C123.106 139.374 125.429 141.698 125.429 144.563Z" fill="white" />
		<path d="M225.281 100.542H195.254V93.202C195.254 92.2793 196 91.5351 196.923 91.5351H223.612C224.535 91.5351 225.281 92.2793 225.281 93.202V100.542Z" fill="#FEDA4E" />
		<path d="M223.28 100.542H193.252V93.202C193.252 92.2793 193.998 91.5351 194.921 91.5351H221.611C222.533 91.5351 223.28 92.2793 223.28 93.202V100.542Z" fill="#374148" />
		<path d="M259.322 148.196H180.627V130.946H259.322V148.196Z" fill="#212826" />
		<path d="M262.151 152.372H138.72C137.381 152.372 136.294 151.285 136.294 149.946V148.734C136.294 147.395 137.381 146.308 138.72 146.308H262.151C263.492 146.308 264.576 147.395 264.576 148.734V149.946C264.576 151.285 263.492 152.372 262.151 152.372Z" fill="#212826" />
		<path d="M172.141 147.191C172.141 153.419 167.092 158.47 160.862 158.47C154.632 158.47 149.583 153.419 149.583 147.191C149.583 140.96 154.632 135.911 160.862 135.911C167.092 135.911 172.141 140.96 172.141 147.191Z" fill="#17242B" />
		<path d="M228.736 147.191C228.736 153.419 223.687 158.47 217.456 158.47C211.228 158.47 206.177 153.419 206.177 147.191C206.177 140.96 211.228 135.911 217.456 135.911C223.687 135.911 228.736 140.96 228.736 147.191Z" fill="#17242B" />
		<path d="M200.484 146.204C200.484 152.943 194.485 158.408 187.081 158.408C179.68 158.408 173.679 152.943 173.679 146.204C173.679 139.465 179.68 134.002 187.081 134.002C194.485 134.002 200.484 139.465 200.484 146.204Z" fill="#17242B" />
		<path d="M200.81 146.204C200.81 152.943 195.347 158.408 188.608 158.408C181.869 158.408 176.406 152.943 176.406 146.204C176.406 139.465 181.869 134.002 188.608 134.002C195.347 134.002 200.81 139.465 200.81 146.204Z" fill="#2F393C" />
		<path d="M200.81 146.204C200.81 152.943 195.347 158.408 188.608 158.408C181.869 158.408 176.406 152.943 176.406 146.204C176.406 139.465 181.869 134.002 188.608 134.002C195.347 134.002 200.81 139.465 200.81 146.204Z" fill="#212826" />
		<path d="M198.544 146.204C198.544 151.478 194.269 155.753 188.995 155.753C183.721 155.753 179.445 151.478 179.445 146.204C179.445 140.93 183.721 136.654 188.995 136.654C194.269 136.654 198.544 140.93 198.544 146.204Z" fill="#48606C" />
		<path d="M199.529 146.867C198.964 146.867 198.497 147.281 198.401 147.838C197.627 152.334 193.711 155.754 188.994 155.754C184.277 155.754 180.363 152.334 179.587 147.838C179.491 147.281 179.024 146.867 178.459 146.867H177.685C176.977 146.867 176.447 147.504 176.556 148.204C177.481 154.026 182.524 158.48 188.609 158.48C194.693 158.48 199.737 154.026 200.658 148.204C200.769 147.504 200.238 146.867 199.529 146.867Z" fill="#374148" />
		<path d="M195.054 146.204C195.054 149.521 192.366 152.209 189.051 152.209C185.732 152.209 183.043 149.521 183.043 146.204C183.043 142.889 185.732 140.2 189.051 140.2C192.366 140.2 195.054 142.889 195.054 146.204Z" fill="#C4CAD1" />
		<path d="M180.184 145.709C180.466 145.709 180.712 145.501 180.745 145.223C181.231 141.061 184.758 137.83 189.051 137.83C193.341 137.83 196.868 141.061 197.356 145.223C197.387 145.501 197.633 145.709 197.915 145.709C198.257 145.709 198.516 145.404 198.476 145.066C197.915 140.328 193.883 136.653 188.994 136.653C184.104 136.653 180.075 140.328 179.514 145.066C179.472 145.404 179.732 145.709 180.075 145.709H180.184Z" fill="#524F5E" />
		<path d="M254.923 146.204C254.923 152.943 248.924 158.408 241.52 158.408C234.119 158.408 228.118 152.943 228.118 146.204C228.118 139.465 234.119 134.002 241.52 134.002C248.924 134.002 254.923 139.465 254.923 146.204Z" fill="#17242B" />
		<path d="M255.249 146.204C255.249 152.943 249.786 158.408 243.047 158.408C236.308 158.408 230.845 152.943 230.845 146.204C230.845 139.465 236.308 134.002 243.047 134.002C249.786 134.002 255.249 139.465 255.249 146.204Z" fill="#2F393C" />
		<path d="M255.249 146.204C255.249 152.943 249.786 158.408 243.047 158.408C236.308 158.408 230.845 152.943 230.845 146.204C230.845 139.465 236.308 134.002 243.047 134.002C249.786 134.002 255.249 139.465 255.249 146.204Z" fill="#212826" />
		<path d="M252.983 146.204C252.983 151.478 248.708 155.753 243.434 155.753C238.16 155.753 233.884 151.478 233.884 146.204C233.884 140.93 238.16 136.654 243.434 136.654C248.708 136.654 252.983 140.93 252.983 146.204Z" fill="#48606C" />
		<path d="M253.968 146.867C253.403 146.867 252.936 147.281 252.84 147.838C252.066 152.334 248.15 155.754 243.433 155.754C238.716 155.754 234.802 152.334 234.027 147.838C233.93 147.281 233.463 146.867 232.898 146.867H232.124C231.416 146.867 230.886 147.504 230.995 148.204C231.92 154.026 236.963 158.48 243.048 158.48C249.132 158.48 254.177 154.026 255.097 148.204C255.209 147.504 254.677 146.867 253.968 146.867Z" fill="#374148" />
		<path d="M249.693 146.173C249.693 149.488 247.004 152.176 243.687 152.176C240.37 152.176 237.682 149.488 237.682 146.173C237.682 142.856 240.37 140.167 243.687 140.167C247.004 140.167 249.693 142.856 249.693 146.173Z" fill="#C4CAD1" />
		<path d="M234.623 145.709C234.905 145.709 235.151 145.501 235.185 145.223C235.67 141.061 239.197 137.83 243.49 137.83C247.78 137.83 251.307 141.061 251.795 145.223C251.826 145.501 252.072 145.709 252.354 145.709C252.697 145.709 252.955 145.404 252.915 145.066C252.354 140.328 248.322 136.653 243.433 136.653C238.544 136.653 234.514 140.328 233.953 145.066C233.911 145.404 234.171 145.709 234.514 145.709H234.623Z" fill="#524F5E" />
		<path d="M165.54 148.501V146.047L166.854 144.555C166.854 138.88 168.521 135.542 169.687 133.902C170.036 133.465 170.404 133.038 170.791 132.628C176.945 126.114 185.993 125.752 191.061 118.511C196.129 111.274 201.558 98.6049 213.863 98.6049H181.112C168.806 98.6049 163.377 111.274 158.311 118.511C153.241 125.752 144.194 126.114 138.039 132.628C137.652 133.038 137.287 133.465 136.936 133.902C135.769 135.542 134.102 138.88 134.102 144.555L132.788 146.047V148.501C132.788 149.131 133.297 149.64 133.928 149.64H166.679C166.049 149.64 165.54 149.131 165.54 148.501Z" fill="#FEDA4E" />
		<path d="M266.287 131.457L263.979 128.285C261.507 111.706 254.972 103.924 251.087 100.66C249.496 99.3251 247.482 98.6041 245.406 98.6041H212.044C199.739 98.6041 194.31 111.273 189.242 118.512C184.176 125.752 175.127 126.113 168.972 132.63C168.587 133.037 168.217 133.464 167.868 133.901C166.702 135.541 165.035 138.879 165.035 144.554L163.719 146.047V148.5C163.719 149.13 164.23 149.639 164.86 149.639H175.6C176.585 149.639 177.327 148.754 177.166 147.783C176.978 146.661 176.934 145.492 177.063 144.289C177.714 138.118 182.822 133.237 189.019 132.859C196.473 132.403 202.659 138.313 202.659 145.668C202.659 146.242 202.621 146.81 202.547 147.365C202.386 148.575 203.357 149.639 204.576 149.639H228.947C230.515 149.639 231.736 148.3 231.608 146.738C231.541 145.942 231.549 145.124 231.637 144.289C232.287 138.118 237.397 133.237 243.592 132.859C251.045 132.403 257.232 138.313 257.232 145.668C257.232 146.341 257.181 147.003 257.08 147.646C256.916 148.693 257.717 149.639 258.777 149.639H263.798C265.499 149.639 266.876 148.262 266.876 146.564V133.266C266.876 132.617 266.672 131.984 266.287 131.457Z" fill="#FEDA4E" />
		<path d="M194.902 118.28H242.717C242.892 118.28 243.06 118.236 243.205 118.154L254.474 111.799C254.757 111.64 254.917 111.356 254.881 111.064C254.73 109.765 253.765 106.071 247.88 102.256C247.524 102.027 247.091 101.907 246.65 101.907H208.772C208.326 101.907 207.893 102.029 207.527 102.25C205.452 103.515 198.364 108.314 194.072 117.178C193.82 117.7 194.255 118.28 194.902 118.28Z" fill="white" />
		<path d="M194.9 117.775H242.574C242.747 117.775 242.915 117.731 243.06 117.649L254.293 111.294C254.577 111.134 254.737 110.851 254.701 110.559C254.55 109.259 253.589 105.566 247.72 101.751C247.367 101.522 246.934 101.402 246.492 101.402H208.725C208.282 101.402 207.851 101.524 207.487 101.745C205.419 103.01 198.354 107.809 194.072 116.673C193.82 117.195 194.255 117.775 194.9 117.775Z" fill="#2C8CA5" />
		<path d="M244.089 104.485C243.706 104.237 243.239 104.107 242.762 104.107H204.167C201.129 106.548 196.965 110.68 194.073 116.673C193.821 117.194 194.256 117.774 194.901 117.774H242.573C242.745 117.774 242.913 117.732 243.061 117.65L251.41 112.925C250.876 111.061 249.213 107.817 244.089 104.485Z" fill="#CDDAFD" />
		<path d="M246.716 112.165C246.334 111.917 245.867 111.789 245.39 111.789H206.795C205.033 113.203 202.895 115.19 200.846 117.775H242.573C242.745 117.775 242.914 117.731 243.061 117.649L249.337 114.099C248.583 113.464 247.719 112.819 246.716 112.165Z" fill="#2C8CA5" />
		<path d="M164.056 115.482C168.773 107.829 172.361 103.9 174.095 102.225C174.782 101.565 175.697 101.205 176.647 101.224L197.602 101.603C198.024 101.611 198.228 102.128 197.919 102.42C196.278 103.961 192.519 107.947 187.499 116.125C186.896 117.107 185.814 117.698 184.66 117.677L165.056 117.319C164.123 117.303 163.566 116.275 164.056 115.482Z" fill="#2C8CA5" />
		<path d="M178.129 103.379C177.179 103.362 176.263 103.722 175.58 104.382C173.869 106.034 170.352 109.887 165.729 117.332L184.658 117.677C185.812 117.698 186.897 117.107 187.5 116.124C191.477 109.645 194.66 105.801 196.627 103.716L178.129 103.379Z" fill="#CDDAFD" />
		<path d="M168.972 132.629C168.585 133.036 168.217 133.463 167.868 133.9C166.702 135.542 165.035 138.88 165.035 144.555L163.719 146.048V148.501C163.719 149.132 164.23 149.64 164.86 149.64H175.6C176.586 149.64 177.328 148.753 177.164 147.782C176.979 146.662 176.934 145.491 177.063 144.291C177.714 138.117 182.822 133.236 189.019 132.858C196.473 132.404 202.659 138.312 202.659 145.667C202.659 146.243 202.621 146.809 202.548 147.366C202.386 148.574 203.355 149.64 204.574 149.64H228.947C230.515 149.64 231.736 148.299 231.608 146.737C231.541 145.941 231.549 145.123 231.638 144.291C232.287 138.117 237.397 133.236 243.592 132.858C251.045 132.404 257.232 138.312 257.232 145.667C257.232 146.34 257.181 147.002 257.08 147.647C256.916 148.694 257.717 149.64 258.777 149.64H263.798C265.499 149.64 266.876 148.261 266.876 146.563V133.268C266.876 132.616 266.672 131.983 266.287 131.456L263.979 128.286C263.952 128.09 263.918 127.903 263.889 127.712H175.78C173.361 128.994 171.009 130.474 168.972 132.629Z" fill="#FEBC2F" />
		<path d="M163.922 137.687H158.472C158.043 137.687 157.694 137.338 157.694 136.909V135.24C157.694 134.811 158.043 134.462 158.472 134.462H163.922C164.351 134.462 164.7 134.811 164.7 135.24V136.909C164.7 137.338 164.351 137.687 163.922 137.687Z" fill="#FEE8A9" />
		<path d="M135.091 137.687H140.123C140.554 137.687 140.901 137.338 140.901 136.909V135.24C140.901 134.809 140.554 134.462 140.123 134.462H136.567C136.075 135.251 135.539 136.306 135.091 137.687Z" fill="#FEE8A9" />
		<path d="M267.17 147.992H264.746C263.945 147.992 263.296 147.342 263.296 146.545V139.941C263.296 139.14 263.945 138.493 264.746 138.493H267.17C267.823 138.493 268.351 139.02 268.351 139.672V146.812C268.351 147.464 267.823 147.992 267.17 147.992Z" fill="#212826" />
		<path d="M157.282 145.567H139.698V141.525C139.698 140.63 140.421 139.909 141.313 139.909H155.663C156.556 139.909 157.282 140.63 157.282 141.525V145.567Z" fill="#FEA100" />
		<path d="M167.119 150.081H134.914C133.982 150.081 133.23 149.329 133.23 148.395V146.375C133.23 145.446 133.982 144.692 134.914 144.692H167.119C168.048 144.692 168.804 145.446 168.804 146.375V148.395C168.804 149.329 168.048 150.081 167.119 150.081Z" fill="#212826" />
		<path d="M161.712 150.081H134.188C133.25 150.081 132.489 149.32 132.489 148.379V146.392C132.489 145.453 133.25 144.692 134.188 144.692H161.712C162.651 144.692 163.414 145.453 163.414 146.392V148.379C163.414 149.32 162.651 150.081 161.712 150.081Z" fill="#374148" />
		<path d="M160.01 148.396H154.553C153.996 148.396 153.544 147.944 153.544 147.387C153.544 146.828 153.996 146.376 154.553 146.376H160.01C160.569 146.376 161.021 146.828 161.021 147.387C161.021 147.944 160.569 148.396 160.01 148.396Z" fill="#212826" />
		<path d="M140.607 148.396H135.148C134.591 148.396 134.139 147.944 134.139 147.387C134.139 146.828 134.591 146.376 135.148 146.376H140.607C141.166 146.376 141.616 146.828 141.616 147.387C141.616 147.944 141.166 148.396 140.607 148.396Z" fill="#212826" />
		<path d="M137.744 143.681H134.172C133.893 143.681 133.668 143.456 133.668 143.176V141.894C133.668 141.616 133.893 141.389 134.172 141.389H137.744C138.023 141.389 138.248 141.616 138.248 141.894V143.176C138.248 143.456 138.023 143.681 137.744 143.681Z" fill="#FEA100" />
		<path d="M154.958 137.481H143.367C142.959 137.481 142.627 137.151 142.627 136.739V135.327C142.627 134.917 142.959 134.585 143.367 134.585H154.958C155.366 134.585 155.7 134.917 155.7 135.327V136.739C155.7 137.151 155.366 137.481 154.958 137.481Z" fill="#374148" />
		<path d="M162.74 143.681H159.169C158.889 143.681 158.664 143.456 158.664 143.176V141.894C158.664 141.616 158.889 141.389 159.169 141.389H162.74C163.02 141.389 163.244 141.616 163.244 141.894V143.176C163.244 143.456 163.02 143.681 162.74 143.681Z" fill="#FEA100" />
		<path d="M257.154 144.253H264.284C264.31 144.016 264.345 143.778 264.383 143.545H257.056C257.095 143.778 257.127 144.016 257.154 144.253Z" fill="#17242B" />
		<path d="M218.308 124.884H213.185C212.555 124.884 212.042 124.371 212.042 123.738C212.042 123.103 212.555 122.593 213.185 122.593H218.308C218.941 122.593 219.454 123.103 219.454 123.738C219.454 124.371 218.941 124.884 218.308 124.884Z" fill="#374148" />
		<path d="M253.504 124.884H248.384C247.753 124.884 247.24 124.371 247.24 123.738C247.24 123.103 247.753 122.593 248.384 122.593H253.504C254.139 122.593 254.65 123.103 254.65 123.738C254.65 124.371 254.139 124.884 253.504 124.884Z" fill="#374148" />
		<path d="M222.592 117.775H225.722L222.771 103.119H219.721L222.592 117.775Z" fill="#2C8CA5" />
		<path d="M173.412 130.307H162.084C161.817 130.307 161.553 130.376 161.319 130.509L157.998 132.379C157.826 132.478 157.628 132.531 157.428 132.531H143.326C142.906 132.531 142.519 132.302 142.315 131.934L141.817 131.036C141.724 130.868 141.6 130.719 141.451 130.595L140.896 130.132C140.785 130.214 140.673 130.296 140.562 130.38L141.192 130.906C141.304 130.998 141.394 131.108 141.464 131.232L141.962 132.131C142.237 132.627 142.76 132.934 143.326 132.934H157.428C157.697 132.934 157.962 132.865 158.198 132.733L161.517 130.86C161.691 130.763 161.889 130.71 162.084 130.71H172.891C173.063 130.574 173.238 130.437 173.412 130.307Z" fill="#FEBC2F" />
		<path d="M266.868 137.921H265.132C264.907 137.921 264.718 137.759 264.68 137.538L264.468 136.336C264.419 136.054 264.636 135.798 264.92 135.798H266.868V137.921Z" fill="#E33C2E" />
		<g opacity="0.279999">
			<g opacity="0.279999">
				<path opacity="0.279999" d="M179.531 117.582L184.253 117.668L183.338 101.344L178.615 101.258L179.531 117.582Z" fill="#FBF9FA" />
			</g>
		</g>
		<path d="M217.657 100.797L220.993 118.08H224.125L220.688 100.797H217.657Z" fill="#DFE5F5" />
		<path d="M207.669 145.331H204.451V142.112H207.669V145.331Z" fill="#212826" />
		<path d="M210.887 148.549H207.669V145.333H210.887V148.549Z" fill="#212826" />
		<path d="M214.103 145.331H210.887V142.112H214.103V145.331Z" fill="#212826" />
		<path d="M217.322 148.549H214.104V145.333H217.322V148.549Z" fill="#212826" />
		<path d="M220.54 145.331H217.324V142.112H220.54V145.331Z" fill="#212826" />
		<path d="M223.758 148.549H220.54V145.333H223.758V148.549Z" fill="#212826" />
		<path d="M226.974 145.331H223.758V142.112H226.974V145.331Z" fill="#212826" />
		<path d="M230.195 148.549H226.976V145.333H230.195V148.549Z" fill="#212826" />
		<path d="M183.043 146.204C183.043 149.521 185.732 152.209 189.049 152.209C192.366 152.209 195.054 149.521 195.054 146.204C195.054 146.162 195.044 146.124 195.042 146.082H183.056C183.056 146.124 183.043 146.162 183.043 146.204Z" fill="#AEB0B6" />
		<path d="M237.739 146.224C237.739 149.541 240.428 152.23 243.743 152.23C247.062 152.23 249.75 149.541 249.75 146.224C249.75 146.182 249.738 146.144 249.738 146.102H237.752C237.75 146.144 237.739 146.182 237.739 146.224Z" fill="#AEB0B6" />
		<path d="M188.123 41.4169C188.123 41.4169 185.348 62.2816 207.24 79.3963C208.069 80.0437 209.271 80.0437 210.101 79.3963C231.992 62.2816 229.219 41.4169 229.219 41.4169C229.219 30.0681 220.019 20.8697 208.67 20.8697C197.323 20.8697 188.123 30.0681 188.123 41.4169Z" fill="url(#paint0_linear)" />
		<path d="M209.532 52.0147C202.98 52.5318 197.555 47.1044 198.072 40.5524C198.476 35.3983 202.655 31.2215 207.809 30.8159C214.359 30.2988 219.786 35.7262 219.269 42.2782C218.861 47.4323 214.687 51.6091 209.532 52.0147Z" fill="white" />
		<path d="M137.512 61.4667H136.631C135.51 61.4667 134.602 60.5586 134.602 59.4382V54.8516C134.602 53.7312 135.51 52.8232 136.631 52.8232H137.512C138.632 52.8232 139.542 53.7312 139.542 54.8516V59.4382C139.542 60.5586 138.632 61.4667 137.512 61.4667Z" fill="#374148" />
		<path d="M101.04 90.352V93.175C101.04 96.4142 103.668 99.0417 106.907 99.0417H139.099C142.338 99.0417 144.964 96.4142 144.964 93.175V91.1424C144.964 79.0158 135.48 68.5814 123.355 68.3943C123.237 68.3922 123.12 68.3901 123.004 68.3901C110.873 68.3901 101.04 78.2212 101.04 90.352Z" fill="url(#paint1_linear)" />
		<path d="M116.677 69.3236C117.957 71.5013 120.297 72.9749 123.002 72.9749C125.709 72.9749 128.049 71.5013 129.329 69.3236C127.326 68.7225 125.203 68.3903 123.002 68.3903C120.803 68.3903 118.682 68.7225 116.677 69.3236Z" fill="url(#paint2_linear)" />
		<path d="M108.01 54.2332C108.01 62.5151 114.722 69.229 123.002 69.229C131.284 69.229 137.998 62.5151 137.998 54.2332C137.998 45.9533 131.284 39.2395 123.002 39.2395C114.722 39.2395 108.01 45.9533 108.01 54.2332Z" fill="url(#paint3_linear)" />
		<path d="M106.819 53.4405C106.819 53.4405 113.431 55.0275 115.55 45.5011C115.55 45.5011 120.578 59.5259 138.305 57.9367C140.159 47.8849 135.925 40.7401 126.664 37.5619C125.293 37.0931 123.86 36.8724 122.418 36.8724C114.104 36.8724 105.465 44.1958 106.819 53.4405Z" fill="url(#paint4_linear)" />
		<path d="M124.017 71.5212V70.4639C136.242 70.4639 137.383 60.7673 137.425 60.3553L138.481 60.4604C138.468 60.5718 137.219 71.5212 124.017 71.5212Z" fill="#374148" />
		<path d="M125.341 72.2275H123.224C122.495 72.2275 121.9 71.6326 121.9 70.9053C121.9 70.1759 122.495 69.581 123.224 69.581H125.341C126.068 69.581 126.663 70.1759 126.663 70.9053C126.663 71.6326 126.068 72.2275 125.341 72.2275Z" fill="#374148" />
		<path d="M86.1393 66.7578H19.5494C14.143 66.7578 9.75818 71.1426 9.75818 76.5511C9.75818 81.9575 14.143 86.3423 19.5494 86.3423H24.4471L29.1788 91.074L33.9125 86.3423H86.1393C91.5457 86.3423 95.9306 81.9575 95.9306 76.5511C95.9306 71.1426 91.5457 66.7578 86.1393 66.7578Z" fill="#FBC93B" />
		<path d="M67.0856 79.6716H23.2689C22.6635 79.6716 22.1738 79.1819 22.1738 78.5765C22.1738 77.9711 22.6635 77.4813 23.2689 77.4813H67.0856C67.6888 77.4813 68.1807 77.9711 68.1807 78.5765C68.1807 79.1819 67.6888 79.6716 67.0856 79.6716Z" fill="white" />
		<path d="M53.3915 73.6469H23.2696C22.6642 73.6469 22.1723 73.1571 22.1723 72.5518C22.1723 71.9464 22.6642 71.4566 23.2696 71.4566H53.3915C53.9969 71.4566 54.4867 71.9464 54.4867 72.5518C54.4867 73.1571 53.9969 73.6469 53.3915 73.6469Z" fill="white" />
		<path d="M21.4878 35.8001H82.6293C87.5942 35.8001 91.6196 39.8276 91.6196 44.7926C91.6196 49.7575 87.5942 53.7829 82.6293 53.7829H78.133L73.7882 58.1299L69.4412 53.7829H21.4878C16.5228 53.7829 12.4974 49.7575 12.4974 44.7926C12.4974 39.8276 16.5228 35.8001 21.4878 35.8001Z" fill="#669CFF" />
		<path d="M79.5499 46.1646H24.9016C24.3466 46.1646 23.8947 45.7147 23.8947 45.1577C23.8947 44.6027 24.3466 44.1529 24.9016 44.1529H79.5499C80.1069 44.1529 80.5568 44.6027 80.5568 45.1577C80.5568 45.7147 80.1069 46.1646 79.5499 46.1646Z" fill="white" />
	</g>
</svg>
