<svg fill="none" version="1.1" viewBox="0 0 667 667" xmlns="http://www.w3.org/2000/svg">
     <defs>
          <filter id="filter961" x="-1.3397e-6" y="-1.0867e-6" width="1" height="1" style="color-interpolation-filters:sRGB">
               <feGaussianBlur stdDeviation="0.00018528953"/>
          </filter>
     </defs>
     <path d="M0 666.67H666.65V0.0200195H0V666.67Z" fill="#E6EBF7"/>
     <g fill-opacity=".52">
          <path d="m334.86 79.352c2.091 54.03 24.597 105.86 56.47 149.54 20.63 28.276 45.497 53.832 75.156 72.417 64.173 40.211 149.94 47.982 198.58 106.02 0.531 0.633 1.053 1.28 1.576 1.924v-409.22h-318.51c-9.848 25.041-14.322 52.436-13.282 79.326" fill="#bed5fe" style="fill-opacity:.52157;fill:#fafafa;filter:url(#filter961);opacity:.991"/>
          <path d="m404.26 663.18c-4.363-6.34-8.922-12.66-14.804-17.624-15.688-13.241-37.806-14.753-57.136-21.67-32.045-11.465-56.317-37.963-76.039-65.701-19.724-27.738-36.497-57.901-60.371-82.159-19.281-19.59-42.851-34.545-68.326-44.726-40.092-16.022-84.659-20.641-127.58-15.977v251.35h406.63c-0.782-1.177-1.572-2.341-2.365-3.493" fill="#BED5FE" style="fill-opacity:.52157;fill:#fafafa"/>
          <path d="m0 0.020142v129.38c19.198-20.345 42.65-36.685 68.465-47.473 33.831-14.137 71.052-18.78 104.78-33.154 22.51-9.5944 52.366-26.729 69.652-48.749h-242.9z" fill="#BED5FE" style="fill-opacity:.52157;fill:#fafafa"/>
     </g>
     <g opacity=".22">
          <g opacity=".22">
               <path d="m531.07 509.34h-414.15c-13.762 0-24.919-11.156-24.919-24.918v-248.25c0-13.763 11.157-24.919 24.919-24.919h414.15c13.762 0 24.918 11.156 24.918 24.919v248.25c0 13.762-11.156 24.918-24.918 24.918" fill="#2F2D4F" opacity=".22"/>
          </g>
     </g>
     <path d="m612.41 479.18-9.869-76.332c-1.052-8.135-5.313-15.511-11.833-20.486l-48.151-36.748-26.099 82.904 59.875 66.783 36.077-16.121z" fill="#F6B381"/>
     <path d="m543.71 371.28 33.785 28.037c1.165 0.957 1.671 2.504 1.296 3.965l-12.013 46.787c-0.801 3.117-4.828 3.961-6.815 1.429l-24.106-30.733c-1.038-1.324-1.105-3.168-0.164-4.566l2.334-44.089c1.28-1.898 3.914-2.283 5.683-0.83" fill="#F6906B"/>
     <path d="m524.67 488.83h-402.76c-9.667 0-17.504-7.837-17.504-17.503v-259.78c0-9.667 7.837-17.504 17.504-17.504h402.76c9.668 0 17.505 7.837 17.505 17.504v259.78c0 9.666-7.837 17.503-17.505 17.503" fill="#2F2D4F"/>
     <path d="m521.07 467.68h-392.48v-253.5h392.48v253.5z" fill="#E6EBF7"/>
     <path d="m382.82 301.03c13.958 17.586 35.728 26.897 57.053 33.922s43.609 12.674 62.092 25.419c6.671 4.597 12.744 10.053 19.102 15.069v-161.26h-148.34c-8.662 29.462-9.11 62.643 10.103 86.852" fill="#9EBFFF"/>
     <path d="m521.07 239.43h-392.48v-25.263h392.48v25.263z" fill="#CFE3FF"/>
     <g fill="#E6EBF7">
          <path d="m448.04 227.53c0 3.179-2.577 5.758-5.756 5.758-3.18 0-5.758-2.579-5.758-5.758s2.578-5.757 5.758-5.757c3.179 0 5.756 2.578 5.756 5.757"/>
          <path d="m473.12 227.53c0 3.179-2.578 5.758-5.757 5.758-3.18 0-5.758-2.579-5.758-5.758s2.578-5.757 5.758-5.757c3.179 0 5.757 2.578 5.757 5.757"/>
          <path d="m498.19 227.53c0 3.179-2.579 5.758-5.758 5.758-3.18 0-5.757-2.579-5.757-5.758s2.577-5.757 5.757-5.757c3.179 0 5.758 2.578 5.758 5.757z"/>
     </g>
     <path d="m298.62 233.29h-144.57c-3.178 0-5.757-2.578-5.757-5.757 0-3.18 2.579-5.757 5.757-5.757h144.57c3.18 0 5.757 2.577 5.757 5.757 0 3.179-2.577 5.757-5.757 5.757z" fill="#fff"/>
     <path d="m337.03 459.13c-11.917-13.885-30.765-19.195-48.471-23.812-9.701-2.53-19.404-5.061-29.106-7.592-9.22-2.404-18.533-4.845-26.962-9.289-17.665-9.311-29.729-26.434-39.99-43.561-10.262-17.131-19.693-35.257-34.426-48.734-7.831-7.205-18.445-13.511-29.487-15.955v157.49h214.26c-1.66-3.028-3.562-5.913-5.821-8.546" fill="#9EBFFF"/>
     <path d="m459.43 431.93h-252.81c-5.935 0-10.747-4.812-10.747-10.747v-141.24c0-5.936 4.812-10.748 10.747-10.748h252.81c5.935 0 10.748 4.812 10.748 10.748v141.24c0 5.935-4.813 10.747-10.748 10.747" fill="#fff"/>
     <path d="m278.73 334.14c0 14.525-11.774 26.299-26.299 26.299-14.526 0-26.301-11.774-26.301-26.299s11.775-26.301 26.301-26.301c14.525 0 26.299 11.776 26.299 26.301z" fill="#F26641"/>
     <path d="m262.77 326.68c0 5.394-4.374 9.767-9.768 9.767-5.395 0-9.768-4.373-9.768-9.767 0-5.395 4.373-9.768 9.768-9.768 5.394 0 9.768 4.373 9.768 9.768z" fill="#fff"/>
     <path d="m236.62 355.05c0-8.845 7.169-16.014 16.013-16.014 8.845 0 16.014 7.169 16.014 16.014 0 0-7.344 6.247-16.228 6.399-8.883 0.152-15.799-6.399-15.799-6.399" fill="#fff"/>
     <path d="m436.27 329.06h-140.82c-2.024 0-3.664-1.64-3.664-3.664v-13.397c0-2.024 1.64-3.664 3.664-3.664h140.82c2.024 0 3.664 1.64 3.664 3.664v13.397c0 2.024-1.64 3.664-3.664 3.664" fill="#CFE3FF"/>
     <path d="m311.81 313.62v10.047h-0.876l-6.459-8.152v8.152h-1.062v-10.047h0.876l6.473 8.153v-8.153h1.048zm9.58 7.363h-5.598l-1.205 2.684h-1.105l4.593-10.047h1.047l4.593 10.047h-1.119l-1.206-2.684zm-0.387-0.861-2.412-5.397-2.411 5.397h4.823zm14.809-6.502v10.047h-1.019v-8.037l-3.947 6.76h-0.503l-3.947-6.717v7.994h-1.019v-10.047h0.876l4.363 7.449 4.32-7.449h0.876zm10.378 9.129v0.918h-7.105v-10.047h6.89v0.919h-5.827v3.574h5.195v0.904h-5.195v3.732h6.042z" fill="#606565"/>
     <path d="m436.27 358.24h-140.82c-2.024 0-3.664-1.639-3.664-3.664v-13.397c0-2.024 1.64-3.664 3.664-3.664h140.82c2.024 0 3.664 1.64 3.664 3.664v13.397c0 2.025-1.64 3.664-3.664 3.664" fill="#CFE3FF"/>
     <path d="m305.22 347.49 1.78 1.005-0.331 0.603-1.794-1.048v2.038h-0.66l0.014-2.038-1.794 1.048-0.344-0.603 1.794-1.005-1.794-1.005 0.344-0.617 1.794 1.062-0.014-2.038h0.66v2.038l1.794-1.062 0.331 0.617-1.78 1.005zm5.817 0 1.779 1.005-0.33 0.603-1.794-1.048v2.038h-0.66l0.014-2.038-1.794 1.048-0.344-0.603 1.794-1.005-1.794-1.005 0.344-0.617 1.794 1.062-0.014-2.038h0.66v2.038l1.794-1.062 0.33 0.617-1.779 1.005zm5.817 0 1.779 1.005-0.33 0.603-1.794-1.048v2.038h-0.66l0.014-2.038-1.794 1.048-0.344-0.603 1.794-1.005-1.794-1.005 0.344-0.617 1.794 1.062-0.014-2.038h0.66v2.038l1.794-1.062 0.33 0.617-1.779 1.005zm5.816 0 1.78 1.005-0.33 0.603-1.794-1.048v2.038h-0.66l0.014-2.038-1.794 1.048-0.345-0.603 1.795-1.005-1.795-1.005 0.345-0.617 1.794 1.062-0.014-2.038h0.66v2.038l1.794-1.062 0.33 0.617-1.78 1.005zm5.817 0 1.78 1.005-0.33 0.603-1.794-1.048v2.038h-0.66l0.014-2.038-1.794 1.048-0.345-0.603 1.794-1.005-1.794-1.005 0.345-0.617 1.794 1.062-0.014-2.038h0.66v2.038l1.794-1.062 0.33 0.617-1.78 1.005zm5.817 0 1.78 1.005-0.33 0.603-1.794-1.048v2.038h-0.661l0.015-2.038-1.794 1.048-0.345-0.603 1.794-1.005-1.794-1.005 0.345-0.617 1.794 1.062-0.015-2.038h0.661v2.038l1.794-1.062 0.33 0.617-1.78 1.005zm5.817 0 1.78 1.005-0.33 0.603-1.794-1.048v2.038h-0.661l0.015-2.038-1.794 1.048-0.345-0.603 1.794-1.005-1.794-1.005 0.345-0.617 1.794 1.062-0.015-2.038h0.661v2.038l1.794-1.062 0.33 0.617-1.78 1.005zm5.817 0 1.78 1.005-0.33 0.603-1.795-1.048v2.038h-0.66l0.015-2.038-1.795 1.048-0.344-0.603 1.794-1.005-1.794-1.005 0.344-0.617 1.795 1.062-0.015-2.038h0.66v2.038l1.795-1.062 0.33 0.617-1.78 1.005zm5.817 0 1.78 1.005-0.331 0.603-1.794-1.048v2.038h-0.66l0.014-2.038-1.794 1.048-0.344-0.603 1.794-1.005-1.794-1.005 0.344-0.617 1.794 1.062-0.014-2.038h0.66v2.038l1.794-1.062 0.331 0.617-1.78 1.005zm5.817 0 1.779 1.005-0.33 0.603-1.794-1.048v2.038h-0.66l0.014-2.038-1.794 1.048-0.344-0.603 1.794-1.005-1.794-1.005 0.344-0.617 1.794 1.062-0.014-2.038h0.66v2.038l1.794-1.062 0.33 0.617-1.779 1.005z" fill="#606565"/>
     <path d="m289.02 406.34h-45.545c-4.804 0-8.7-3.894-8.7-8.698v-3.072c0-4.805 3.896-8.7 8.7-8.7h45.545c4.806 0 8.7 3.895 8.7 8.7v3.072c0 4.804-3.894 8.698-8.7 8.698" fill="#F26641"/>
     <path d="m422.59 406.34h-45.545c-4.805 0-8.7-3.894-8.7-8.698v-3.072c0-4.805 3.895-8.7 8.7-8.7h45.545c4.806 0 8.699 3.895 8.699 8.7v3.072c0 4.804-3.893 8.698-8.699 8.698" fill="#9EBFFF"/>
     <g opacity=".22">
          <g opacity=".22">
               <path d="m472.74 408.85s-6.909 16.887 3.454 29.17c10.363 12.282 26.482 16.503 26.482 16.503s-3.07 26.484 8.444 33.776h25.332l2.304-55.652-66.016-23.797z" fill="#2F2D4F" opacity=".22"/>
          </g>
     </g>
     <path d="m558.37 528.03-5.88-18.621c-0.287-0.907-0.964-1.635-1.845-1.988l-22.044-8.817c-20.247-8.1-19.505-39.811-18.926-48.294 0.087-1.285-0.615-2.481-1.775-3.045l-23.132-11.27c-7.894-3.846-14.352-14.176-14.352-22.956v-0.045c0-9.192 7.074-14.16 15.719-11.043l58.978 21.272c0.688 0.248 1.27 0.726 1.646 1.357l30.929 51.918c0.761 1.275 2.306 1.851 3.716 1.385l26.143-8.653c1.781-0.59 3.681 0.489 4.088 2.32l12.198 54.837c0.44 1.979-1.065 3.856-3.093 3.856h-59.349c-1.383 0-2.605-0.896-3.021-2.213" fill="#F6B381"/>
     <path d="m557.15 493.46c-42.985-7.677-32.24-52.197-32.24-52.197l-53.939-23.664c1.699 7.536 7.25 15.201 13.806 18.394l23.133 11.272 1.951 0.95s-0.102 0.903-0.199 2.443c-8e-3 0.128-0.017 0.254-0.025 0.39-0.014 0.221-0.024 0.465-0.038 0.71-6e-3 0.12-0.013 0.23-0.018 0.354-0.016 0.374-0.034 0.769-0.047 1.186-4e-3 0.107-7e-3 0.226-0.011 0.335-9e-3 0.323-0.017 0.652-0.024 0.999-4e-3 0.165-5e-3 0.341-8e-3 0.513-4e-3 0.308-8e-3 0.621-9e-3 0.945-1e-3 0.195-1e-3 0.399-1e-3 0.599 1e-3 0.316 2e-3 0.637 6e-3 0.967 3e-3 0.218 6e-3 0.437 0.01 0.66 6e-3 0.34 0.016 0.688 0.024 1.04 6e-3 0.218 0.013 0.437 0.021 0.66 0.013 0.388 0.031 0.786 0.051 1.186 0.01 0.2 0.018 0.398 0.029 0.599 0.032 0.604 0.071 1.217 0.117 1.842 3e-3 0.03 6e-3 0.062 8e-3 0.091 0.046 0.596 0.099 1.2 0.158 1.812 0.021 0.204 0.045 0.412 0.066 0.616 0.046 0.443 0.096 0.888 0.151 1.337 0.029 0.25 0.063 0.5 0.096 0.751 0.055 0.413 0.112 0.829 0.175 1.245 0.038 0.267 0.08 0.534 0.122 0.802 0.067 0.414 0.139 0.833 0.214 1.252 0.046 0.264 0.092 0.525 0.142 0.788 0.084 0.442 0.176 0.886 0.27 1.33 0.05 0.239 0.097 0.478 0.15 0.716 0.124 0.551 0.258 1.102 0.396 1.651 0.034 0.129 0.062 0.26 0.096 0.39 0.176 0.676 0.367 1.35 0.568 2.02 0.056 0.187 0.12 0.37 0.178 0.554 0.152 0.484 0.309 0.966 0.476 1.445 0.084 0.244 0.174 0.484 0.264 0.725 0.153 0.419 0.31 0.836 0.476 1.25 0.102 0.254 0.21 0.509 0.317 0.762 0.168 0.396 0.341 0.79 0.521 1.179 0.116 0.251 0.233 0.501 0.355 0.749 0.192 0.396 0.396 0.786 0.601 1.172 0.121 0.228 0.241 0.458 0.367 0.683 0.244 0.436 0.502 0.86 0.766 1.284 0.102 0.164 0.196 0.333 0.302 0.495 0.373 0.577 0.764 1.141 1.174 1.69 0.084 0.109 0.174 0.212 0.256 0.32 0.335 0.433 0.679 0.86 1.038 1.272 0.157 0.181 0.324 0.352 0.485 0.527 0.304 0.329 0.609 0.656 0.929 0.968 0.191 0.186 0.387 0.365 0.584 0.545 0.314 0.288 0.634 0.569 0.963 0.841 0.213 0.175 0.427 0.347 0.645 0.515 0.343 0.263 0.695 0.513 1.055 0.759 0.221 0.152 0.441 0.306 0.669 0.45 0.402 0.254 0.818 0.491 1.24 0.723 0.204 0.113 0.402 0.235 0.611 0.341 0.641 0.328 1.3 0.635 1.988 0.91 2.705 1.082 5.084 2.034 7.201 2.882l0.776 0.31c1.544 0.617 2.937 1.174 4.188 1.674l2.721 1.088c8.544 3.419 8.551 3.421 8.551 3.421l6.331 20.052c0.416 1.317 1.639 2.213 3.022 2.213h14.097l-8.369-35.248-9.979-1.535z" fill="#F6906B"/>
     <path d="m474.5 414.88 2.244-4.361c1.137-2.215 3.744-3.237 6.086-2.389l11.183 4.048c2.8 1.013 4.077 4.254 2.722 6.906l-3.212 6.285c-1.296 2.534-4.453 3.458-6.907 2.022l-10.212-5.975c-2.271-1.328-3.105-4.197-1.904-6.536" fill="#E3E3E6"/>
     <path d="m626.86 538.15-72.018 11.451c-3.977 0.632-7.714-2.08-8.346-6.057l-1.688-10.613c-0.634-3.977 2.08-7.714 6.057-8.348l72.019-11.45c3.976-0.632 7.714 2.08 8.346 6.057l1.688 10.613c0.633 3.979-2.08 7.715-6.058 8.347" fill="#F1E8E1"/>
     <path d="m590.85 543.88-34.621 5.504c-4.743 0.755-9.202-2.48-9.958-7.225l-1.244-7.833c-0.756-4.747 2.48-9.204 7.225-9.959l34.621-5.505c4.744-0.753 9.202 2.481 9.955 7.227l1.247 7.833c0.753 4.745-2.48 9.203-7.225 9.958" fill="#DDD3D2"/>
     <path d="m661.34 667.11-22.676-138.61-99.565 15.83 20.196 122.78 102.04-3e-3z" fill="#393C63"/>
     <path d="m620.17 667.11-18.862-114.53c-1.553-9.77-10.732-16.431-20.501-14.879l-41.696 6.631 20.195 122.78h60.864z" fill="#2F2D4F"/>
     <g opacity=".22">
          <g opacity=".22">
               <path d="m243.47 387.4-55.441 101.43h35.168c8.512-25.951 23.018-70.102 26.926-81.469 5.628-16.375-6.653-19.958-6.653-19.958z" fill="#2F2D4F" opacity=".22"/>
          </g>
     </g>
     <path d="m125.78 541.75 2.708-18.95c0.4-2.803-0.182-5.644-1.609-8.091-2.613-4.48-6.49-12.549-5.941-20.251 0.82-11.483 18.138-48.963 18.138-48.963s4.1-9.021 13.942-9.021c6.248 0 20.759 3.966 30.522 6.861 5.66 1.68 11.712-0.847 14.497-6.052l26.712-52.012c3.325-6.212 11.141-8.424 17.226-4.874 5.001 2.918 7.326 8.899 5.609 14.429l-28.445 91.58c-1.251 4.028-0.369 8.402 2.327 11.646 2.991 3.598 6.187 9.2 5.268 16.089-1.211 9.084-17.181 18.616-25.451 22.98-3.146 1.66-5.415 4.589-6.255 8.045l-3.018 12.404c-1.647 6.771-8.539 10.867-15.275 9.077l-41.84-11.123c-6.089-1.618-10.005-7.536-9.115-13.774" fill="#F6B381"/>
     <path d="m226.18 397.41 11.482 3.553s6.288-10.661 0.82-15.309c-5.467-4.647-10.387 6.287-12.302 11.756z" fill="#E3E3E6"/>
     <path d="m226.73 514.14c0.586-4.401-0.508-8.273-2.154-11.435-13.937 24.195-50.334 26.196-50.334 26.196l-7.382 31.165-0.985 3.695 10.856 2.885c6.736 1.79 13.628-2.305 15.274-9.077l3.017-12.404c0.842-3.456 3.11-6.385 6.256-8.045 8.271-4.364 24.24-13.896 25.452-22.98" fill="#F6906B"/>
     <path d="m119.95 567.83 72.02 11.451c3.977 0.632 7.714-2.08 8.346-6.057l1.688-10.613c0.632-3.977-2.08-7.714-6.057-8.348l-72.019-11.45c-3.978-0.632-7.715 2.08-8.347 6.056l-1.687 10.614c-0.633 3.977 2.079 7.713 6.056 8.347" fill="#F1E8E1"/>
     <path d="m155.96 573.56 34.619 5.504c4.745 0.755 9.204-2.48 9.959-7.225l1.245-7.835c0.755-4.745-2.48-9.202-7.225-9.957l-34.621-5.505c-4.744-0.755-9.202 2.481-9.957 7.225l-1.245 7.835c-0.755 4.745 2.48 9.203 7.225 9.958" fill="#DDD3D2"/>
     <path d="m192.4 667.11 15.313-93.1-99.563-15.831-17.821 108.93h102.07z" fill="#393C63"/>
     <path d="m192.4 667.11 15.313-93.1-41.695-6.631c-9.769-1.553-18.949 5.108-20.502 14.877l-13.973 84.854h60.857z" fill="#2F2D4F"/>
</svg>
