<svg width="300" height="222" viewBox="0 0 300 222" fill="none" xmlns="http://www.w3.org/2000/svg">
<defs>
<linearGradient id="paint0_linear" x1="180.248" y1="-62.8346" x2="280.724" y2="193.594" gradientUnits="userSpaceOnUse">
<stop stop-color="#FF7D49"/>
<stop offset="0.35484" stop-color="#FF7D49"/>
<stop offset="1" stop-color="#D32F2F"/>
</linearGradient>
</defs>
<path d="M177.163 44.4307C177.163 44.4307 171.603 89.5625 215.457 126.582C217.117 127.984 219.528 127.984 221.186 126.582C265.04 89.5625 259.479 44.4307 259.479 44.4307C259.479 19.8852 241.054 -0.0127869 218.323 -0.0127869C195.591 -0.0127869 177.163 19.8852 177.163 44.4307Z" fill="url(#paint0_linear)"/>
<path d="M220.061 67.3705C206.936 68.4866 196.067 56.7499 197.101 42.578C197.916 31.4301 206.279 22.3976 216.605 21.5197C229.727 20.4036 240.598 32.1404 239.563 46.3123C238.75 57.4601 230.385 66.4927 220.061 67.3705Z" fill="white"/>
<path d="M48.2466 97.5451H-0.00477123C-0.00477123 97.5451 3.03482 88.1089 11.7736 86.4701C20.5124 84.8268 20.1325 92.2116 27.7315 92.6219C35.3284 93.0322 37.6081 88.1089 43.3073 90.9808C49.0065 93.8527 48.2466 97.5451 48.2466 97.5451Z" fill="#F1F2F2"/>
<path d="M159.576 63.356H111.324C111.324 63.356 114.364 53.9199 123.103 52.281C131.841 50.6377 131.461 58.0225 139.06 58.4328C146.657 58.8431 148.937 53.9199 154.636 56.7917C160.335 59.6636 159.576 63.356 159.576 63.356Z" fill="#F1F2F2"/>
<path d="M300.014 221.883C299.448 219.042 297.454 213.06 290.699 213.06C281.848 213.06 284.57 219.677 275.039 215.266C265.506 210.854 269.591 180.708 253.249 175.562C236.907 170.416 238.27 200.56 230.779 204.972C223.288 209.383 219.885 192.474 209.672 197.62C201.466 201.756 200.295 216.313 200.15 221.883H300.014Z" fill="#63C856"/>
<path d="M173.548 104.471H122.018V90.8683C122.018 89.1632 123.301 87.778 124.882 87.778H170.686C172.267 87.778 173.548 89.1632 173.548 90.8683V104.471Z" fill="#FEDA4E"/>
<path d="M170.116 104.471H118.586V90.8683C118.586 89.1632 119.869 87.778 121.45 87.778H167.254C168.835 87.778 170.116 89.1632 170.116 90.8683V104.471Z" fill="#374148"/>
<path d="M231.97 192.789H96.9229V160.828H231.97V192.789Z" fill="#212826"/>
<path d="M236.811 200.531H25.0003C22.7002 200.531 20.8372 198.52 20.8372 196.038V193.788C20.8372 191.307 22.7002 189.295 25.0003 189.295H236.811C239.109 189.295 240.974 191.307 240.974 193.788V196.038C240.974 198.52 239.109 200.531 236.811 200.531" fill="#212826"/>
<path d="M82.3602 190.914C82.3602 202.457 73.6929 211.816 63.0033 211.816C52.3137 211.816 43.6463 202.457 43.6463 190.914C43.6463 179.372 52.3137 170.01 63.0033 170.01C73.6929 170.01 82.3602 179.372 82.3602 190.914Z" fill="#17242B"/>
<path d="M179.472 190.914C179.472 202.457 170.804 211.816 160.113 211.816C149.423 211.816 140.756 202.457 140.756 190.914C140.756 179.372 149.423 170.01 160.113 170.01C170.804 170.01 179.472 179.372 179.472 190.914Z" fill="#17242B"/>
<path d="M130.998 189.083C130.998 201.572 120.7 211.697 107.999 211.697C95.2949 211.697 84.9975 201.572 84.9975 189.083C84.9975 176.597 95.2949 166.472 107.999 166.472C120.7 166.472 130.998 176.597 130.998 189.083Z" fill="#17242B"/>
<path d="M131.549 189.083C131.549 201.572 122.175 211.697 110.609 211.697C99.0433 211.697 89.6692 201.572 89.6692 189.083C89.6692 176.597 99.0433 166.472 110.609 166.472C122.175 166.472 131.549 176.597 131.549 189.083Z" fill="#2F393C"/>
<path d="M131.549 189.083C131.549 201.572 122.175 211.697 110.609 211.697C99.0433 211.697 89.6692 201.572 89.6692 189.083C89.6692 176.597 99.0433 166.472 110.609 166.472C122.175 166.472 131.549 176.597 131.549 189.083Z" fill="#212826"/>
<path d="M127.668 189.083C127.668 198.857 120.331 206.778 111.281 206.778C102.23 206.778 94.8944 198.857 94.8944 189.083C94.8944 179.312 102.23 171.391 111.281 171.391C120.331 171.391 127.668 179.312 127.668 189.083Z" fill="#48606C"/>
<path d="M129.343 190.319C128.373 190.319 127.572 191.089 127.407 192.116C126.077 200.45 119.358 206.787 111.263 206.787C103.17 206.787 96.449 200.45 95.1212 192.116C94.9557 191.089 94.1529 190.319 93.1826 190.319H91.8589C90.6435 190.319 89.7304 191.499 89.9204 192.796C91.5055 203.589 100.161 211.84 110.601 211.84C121.041 211.84 129.696 203.589 131.282 192.796C131.472 191.499 130.559 190.319 129.343 190.319Z" fill="#374148"/>
<path d="M121.662 189.084C121.662 195.231 117.048 200.214 111.357 200.214C105.664 200.214 101.051 195.231 101.051 189.084C101.051 182.938 105.664 177.956 111.357 177.956C117.048 177.956 121.662 182.938 121.662 189.084Z" fill="#C4CAD1"/>
<path d="M96.1487 188.179C96.6308 188.179 97.0516 187.795 97.1088 187.279C97.9422 179.57 103.997 173.584 111.361 173.584C118.725 173.584 124.78 179.57 125.613 187.279C125.67 187.795 126.091 188.179 126.573 188.179C127.161 188.179 127.607 187.619 127.537 186.988C126.573 178.209 119.654 171.404 111.267 171.404C102.877 171.404 95.9608 178.209 94.9946 186.988C94.9251 187.619 95.3725 188.179 95.9608 188.179H96.1487Z" fill="#524F5E"/>
<path d="M224.412 189.083C224.412 201.572 214.115 211.697 201.413 211.697C188.709 211.697 178.412 201.572 178.412 189.083C178.412 176.597 188.709 166.472 201.413 166.472C214.115 166.472 224.412 176.597 224.412 189.083Z" fill="#17242B"/>
<path d="M224.963 189.083C224.963 201.572 215.589 211.697 204.023 211.697C192.457 211.697 183.083 201.572 183.083 189.083C183.083 176.597 192.457 166.472 204.023 166.472C215.589 166.472 224.963 176.597 224.963 189.083Z" fill="#2F393C"/>
<path d="M224.963 189.083C224.963 201.572 215.589 211.697 204.023 211.697C192.457 211.697 183.083 201.572 183.083 189.083C183.083 176.597 192.457 166.472 204.023 166.472C215.589 166.472 224.963 176.597 224.963 189.083Z" fill="#212826"/>
<path d="M221.082 189.083C221.082 198.857 213.745 206.778 204.695 206.778C195.644 206.778 188.309 198.857 188.309 189.083C188.309 179.312 195.644 171.391 204.695 171.391C213.745 171.391 221.082 179.312 221.082 189.083Z" fill="#48606C"/>
<path d="M222.778 190.319C221.807 190.319 221.007 191.089 220.841 192.116C219.511 200.45 212.793 206.787 204.698 206.787C196.604 206.787 189.884 200.45 188.554 192.116C188.39 191.089 187.588 190.319 186.617 190.319H185.294C184.078 190.319 183.165 191.499 183.355 192.796C184.94 203.589 193.595 211.84 204.036 211.84C214.476 211.84 223.131 203.589 224.716 192.796C224.906 191.499 223.993 190.319 222.778 190.319Z" fill="#374148"/>
<path d="M215.444 189.039C215.444 195.185 210.83 200.167 205.139 200.167C199.446 200.167 194.833 195.185 194.833 189.039C194.833 182.894 199.446 177.911 205.139 177.911C210.83 177.911 215.444 182.894 215.444 189.039Z" fill="#C4CAD1"/>
<path d="M189.583 188.179C190.065 188.179 190.486 187.795 190.543 187.279C191.377 179.57 197.431 173.584 204.796 173.584C212.16 173.584 218.212 179.57 219.048 187.279C219.105 187.795 219.524 188.179 220.008 188.179C220.594 188.179 221.041 187.619 220.972 186.988C220.008 178.209 213.089 171.404 204.7 171.404C196.31 171.404 189.395 178.209 188.429 186.988C188.36 187.619 188.807 188.179 189.393 188.179H189.583Z" fill="#524F5E"/>
<path d="M71.0231 193.341V188.792L73.2782 186.031C73.2782 175.514 76.1401 169.327 78.1399 166.287C78.7405 165.475 79.3717 164.688 80.0376 163.929C90.5965 151.855 106.125 151.187 114.821 137.771C123.517 124.356 132.834 100.882 153.954 100.882H97.7481C76.6304 100.882 67.3135 124.356 58.6155 137.771C49.9196 151.187 34.3907 151.855 23.8318 163.929C23.168 164.688 22.5367 165.475 21.9341 166.287C19.9364 169.327 17.0724 175.514 17.0724 186.031L14.8173 188.792V193.341C14.8173 194.505 15.6936 195.451 16.7742 195.451H72.98C71.8994 195.451 71.0231 194.505 71.0231 193.341Z" fill="#FEDA4E"/>
<path d="M243.92 161.776L239.961 155.898C235.714 125.179 224.502 110.76 217.832 104.707C215.105 102.234 211.649 100.9 208.086 100.9H150.833C129.715 100.9 120.398 124.374 111.7 137.789C103.006 151.204 87.4773 151.875 76.9164 163.947C76.2525 164.706 75.6213 165.495 75.0187 166.307C73.0209 169.346 70.159 175.531 70.159 186.048L67.9039 188.812V193.358C67.9039 194.525 68.7782 195.469 69.8588 195.469H88.2903C89.9817 195.469 91.2523 193.828 90.9745 192.028C90.6538 189.95 90.5823 187.782 90.8009 185.559C91.9182 174.12 100.684 165.074 111.318 164.372C124.11 163.528 134.726 174.481 134.726 188.109C134.726 189.176 134.66 190.226 134.534 191.254C134.258 193.497 135.921 195.469 138.015 195.469H179.842C182.53 195.469 184.63 192.985 184.405 190.094C184.291 188.616 184.303 187.1 184.454 185.559C185.573 174.12 194.339 165.074 204.973 164.372C217.763 163.528 228.381 174.481 228.381 188.109C228.381 189.357 228.291 190.583 228.12 191.777C227.838 193.716 229.212 195.469 231.03 195.469H239.651C242.566 195.469 244.929 192.917 244.929 189.769V165.131C244.929 163.927 244.576 162.751 243.92 161.776Z" fill="#FEDA4E"/>
<path d="M121.417 137.359H203.474C203.77 137.359 204.062 137.279 204.311 137.127L223.646 125.353C224.132 125.055 224.408 124.53 224.349 123.988C224.087 121.581 222.433 114.739 212.331 107.667C211.723 107.242 210.979 107.021 210.221 107.021H145.215C144.451 107.021 143.712 107.244 143.083 107.656C139.52 110.001 127.36 118.89 119.994 135.316C119.561 136.285 120.308 137.359 121.417 137.359" fill="white"/>
<path d="M121.397 136.41H203.208C203.505 136.41 203.795 136.329 204.044 136.179L223.321 124.402C223.805 124.104 224.081 123.582 224.022 123.039C223.762 120.633 222.112 113.788 212.041 106.717C211.434 106.291 210.691 106.072 209.935 106.072H145.123C144.363 106.072 143.624 106.295 142.999 106.706C139.446 109.05 127.321 117.942 119.977 134.366C119.544 135.334 120.29 136.41 121.397 136.41" fill="#2C8CA5"/>
<path d="M205.823 111.794C205.167 111.333 204.365 111.095 203.547 111.095H137.312C132.103 115.617 124.957 123.275 119.991 134.377C119.56 135.345 120.304 136.421 121.411 136.421H203.225C203.521 136.421 203.809 136.34 204.058 136.19L218.39 127.433C217.469 123.977 214.615 117.968 205.823 111.794Z" fill="#47BBE4"/>
<path d="M210.337 126.021C209.682 125.56 208.879 125.324 208.062 125.324H141.826C138.807 127.945 135.138 131.628 131.619 136.417H203.229C203.525 136.417 203.815 136.335 204.064 136.183L214.836 129.603C213.54 128.428 212.055 127.228 210.337 126.021Z" fill="#2C8CA5"/>
<path d="M68.4697 132.175C76.5671 117.997 82.7239 110.716 85.7022 107.61C86.8747 106.388 88.4476 105.722 90.0777 105.753L126.04 106.458C126.767 106.472 127.115 107.433 126.583 107.969C123.769 110.826 117.32 118.213 108.703 133.366C107.668 135.188 105.809 136.28 103.829 136.243L70.1876 135.583C68.5882 135.55 67.6281 133.646 68.4697 132.175Z" fill="#2C8CA5"/>
<path d="M92.6352 109.743C91.0051 109.71 89.4343 110.376 88.2597 111.6C85.3223 114.662 79.288 121.802 71.3561 135.599L103.842 136.236C105.823 136.276 107.682 135.184 108.718 133.362C115.54 121.358 121.005 114.229 124.381 110.365L92.6352 109.743Z" fill="#47BBE4"/>
<path d="M76.9062 163.938C76.2423 164.697 75.6111 165.484 75.0085 166.296C73.0107 169.335 70.1468 175.523 70.1468 186.04L67.8916 188.801V193.349C67.8916 194.514 68.7679 195.46 69.8485 195.46H88.2801C89.9715 195.46 91.2421 193.819 90.9643 192.017C90.6435 189.939 90.572 187.773 90.7886 185.55C91.908 174.109 100.673 165.065 111.308 164.362C124.099 163.519 134.716 174.47 134.716 188.1C134.716 189.167 134.65 190.217 134.523 191.245C134.248 193.486 135.911 195.46 138.004 195.46H179.831C182.52 195.46 184.617 192.977 184.395 190.085C184.28 188.607 184.293 187.092 184.444 185.55C185.563 174.109 194.329 165.065 204.961 164.362C217.753 163.519 228.371 174.47 228.371 188.1C228.371 189.348 228.281 190.572 228.109 191.766C227.827 193.707 229.202 195.46 231.02 195.46H239.641C242.555 195.46 244.919 192.908 244.919 189.761V165.12C244.919 163.916 244.566 162.742 243.91 161.768L239.949 155.889C239.9 155.528 239.845 155.183 239.794 154.828H88.5906C84.4377 157.199 80.3992 159.943 76.9062 163.938Z" fill="#FEBC2F"/>
<path d="M68.245 173.312H58.8933C58.1559 173.312 57.5574 172.666 57.5574 171.87V168.777C57.5574 167.981 58.1559 167.337 58.8933 167.337H68.245C68.9824 167.337 69.5809 167.981 69.5809 168.777V171.87C69.5809 172.666 68.9824 173.312 68.245 173.312" fill="#FEE8A9"/>
<path d="M18.77 173.312H27.4046C28.142 173.312 28.7385 172.666 28.7385 171.87V168.777C28.7385 167.981 28.142 167.335 27.4046 167.335H21.3009C20.4552 168.797 19.536 170.752 18.77 173.312" fill="#FEE8A9"/>
<path d="M245.432 192.414H241.269C239.898 192.414 238.785 191.212 238.785 189.73V177.495C238.785 176.01 239.898 174.81 241.269 174.81H245.432C246.549 174.81 247.456 175.79 247.456 176.996V190.231C247.456 191.437 246.549 192.414 245.432 192.414" fill="#212826"/>
<path d="M56.8465 187.914H26.6692V180.424C26.6692 178.769 27.9112 177.428 29.4432 177.428H54.0725C55.6045 177.428 56.8465 178.769 56.8465 180.424V187.914Z" fill="#FEA100"/>
<path d="M73.7399 196.274H18.4718C16.8764 196.274 15.5813 194.876 15.5813 193.153V189.408C15.5813 187.683 16.8764 186.287 18.4718 186.287H73.7399C75.3374 186.287 76.6304 187.683 76.6304 189.408V193.153C76.6304 194.876 75.3374 196.274 73.7399 196.274" fill="#212826"/>
<path d="M64.4455 196.274H17.2134C15.5996 196.274 14.2943 194.86 14.2943 193.12V189.436C14.2943 187.696 15.5996 186.287 17.2134 186.287H64.4455C66.0572 186.287 67.3645 187.696 67.3645 189.436V193.12C67.3645 194.86 66.0572 196.274 64.4455 196.274" fill="#374148"/>
<path d="M61.5244 193.164H52.1584C51.2004 193.164 50.4242 192.324 50.4242 191.289C50.4242 190.257 51.2004 189.419 52.1584 189.419H61.5244C62.4824 189.419 63.2587 190.257 63.2587 191.289C63.2587 192.324 62.4824 193.164 61.5244 193.164Z" fill="#212826"/>
<path d="M28.2339 193.164H18.87C17.91 193.164 17.1337 192.324 17.1337 191.289C17.1337 190.257 17.91 189.419 18.87 189.419H28.2339C29.192 189.419 29.9682 190.257 29.9682 191.289C29.9682 192.324 29.192 193.164 28.2339 193.164Z" fill="#212826"/>
<path d="M23.3191 184.407H17.1909C16.7129 184.407 16.3248 183.99 16.3248 183.472V181.099C16.3248 180.583 16.7129 180.164 17.1909 180.164H23.3191C23.7971 180.164 24.1852 180.583 24.1852 181.099V183.472C24.1852 183.99 23.7971 184.407 23.3191 184.407" fill="#FEA100"/>
<path d="M52.8632 172.937H32.9772C32.2745 172.937 31.7046 172.324 31.7046 171.563V168.941C31.7046 168.184 32.2745 167.569 32.9772 167.569H52.8632C53.5659 167.569 54.1358 168.184 54.1358 168.941V171.563C54.1358 172.324 53.5659 172.937 52.8632 172.937" fill="#374148"/>
<path d="M66.2227 184.407H60.0945C59.6165 184.407 59.2284 183.99 59.2284 183.472V181.099C59.2284 180.583 59.6165 180.164 60.0945 180.164H66.2227C66.7007 180.164 67.0908 180.583 67.0908 181.099V183.472C67.0908 183.99 66.7007 184.407 66.2227 184.407" fill="#FEA100"/>
<path d="M228.232 185.488H240.468C240.511 185.048 240.57 184.615 240.637 184.179H228.062C228.13 184.615 228.187 185.048 228.232 185.488Z" fill="#17242B"/>
<path d="M161.577 149.579H152.79C151.705 149.579 150.825 148.628 150.825 147.457C150.825 146.285 151.705 145.335 152.79 145.335H161.577C162.662 145.335 163.543 146.285 163.543 147.457C163.543 148.628 162.662 149.579 161.577 149.579Z" fill="#374148"/>
<path d="M221.981 149.579H213.193C212.109 149.579 211.228 148.628 211.228 147.457C211.228 146.285 212.109 145.335 213.193 145.335H221.981C223.066 145.335 223.946 146.285 223.946 147.457C223.946 148.628 223.066 149.579 221.981 149.579Z" fill="#374148"/>
<path d="M168.931 136.41H174.304L169.238 109.255H164.002L168.931 136.41Z" fill="#2C8CA5"/>
<path d="M84.5255 159.637H65.0869C64.6252 159.637 64.1717 159.767 63.7693 160.01L58.0721 163.481C57.7759 163.66 57.4389 163.757 57.0978 163.757H32.8934C32.1723 163.757 31.5084 163.336 31.1591 162.654L30.3032 160.991C30.1418 160.68 29.9294 160.404 29.6741 160.173L28.7242 159.315C28.5301 159.467 28.3402 159.619 28.1481 159.774L29.2308 160.748C29.4208 160.918 29.576 161.123 29.6945 161.353L30.5524 163.018C31.0243 163.936 31.9211 164.507 32.8934 164.507H57.0978C57.5574 164.507 58.0129 164.377 58.4133 164.134L64.1105 160.662C64.4087 160.482 64.7457 160.387 65.0869 160.387H83.6288C83.927 160.133 84.2253 159.879 84.5255 159.637Z" fill="#FEBC2F"/>
<path d="M244.901 173.754H241.92C241.538 173.754 241.209 173.456 241.144 173.05L240.782 170.818C240.699 170.297 241.07 169.821 241.559 169.821H244.901V173.754Z" fill="#E33C2E"/>
<g opacity="0.28">
<g opacity="0.28">
<path opacity="0.28" d="M95.0252 136.057L103.127 136.214L101.554 105.967L93.4523 105.808L95.0252 136.057Z" fill="#FBF9FA"/>
</g>
</g>
<path d="M160.454 104.956L166.178 136.979H171.554L165.657 104.956H160.454Z" fill="#DFE5F5"/>
<path d="M143.315 187.473H137.794V181.511H143.315V187.473Z" fill="#212826"/>
<path d="M148.831 193.429H143.307V187.467H148.831V193.429Z" fill="#212826"/>
<path d="M154.367 187.473H148.845V181.511H154.367V187.473Z" fill="#212826"/>
<path d="M159.882 193.429H154.36V187.467H159.882V193.429Z" fill="#212826"/>
<path d="M165.418 187.473H159.894V181.511H165.418V187.473Z" fill="#212826"/>
<path d="M170.933 193.429H165.412V187.467H170.933V193.429Z" fill="#212826"/>
<path d="M176.449 187.473H170.927V181.511H176.449V187.473Z" fill="#212826"/>
<path d="M181.964 193.429H176.44V187.467H181.964V193.429Z" fill="#212826"/>
<path d="M101.051 189.083C101.051 195.231 105.666 200.214 111.357 200.214C117.05 200.214 121.662 195.231 121.662 189.083C121.662 189.008 121.644 188.938 121.642 188.859H101.072C101.07 188.938 101.051 189.008 101.051 189.083" fill="#AEB0B6"/>
<path d="M194.915 189.128C194.915 195.275 199.529 200.258 205.22 200.258C210.914 200.258 215.526 195.275 215.526 189.128C215.526 189.053 215.508 188.982 215.506 188.903H194.937C194.935 188.982 194.915 189.053 194.915 189.128Z" fill="#AEB0B6"/>
<path d="M238.772 221.883H26.3281C23.789 221.883 21.732 219.66 21.732 216.92C21.732 214.18 23.789 211.957 26.3281 211.957H238.772C241.311 211.957 243.369 214.18 243.369 216.92C243.369 219.66 241.311 221.883 238.772 221.883Z" fill="#F1F2F2"/>
<path d="M65.3034 35.8504C65.3034 52.4994 52.804 65.9963 37.3854 65.9963C21.9669 65.9963 9.46942 52.4994 9.46942 35.8504C9.46942 19.2015 21.9669 5.70451 37.3854 5.70451C52.804 5.70451 65.3034 19.2015 65.3034 35.8504Z" fill="#FEE18E"/>
</svg>
